<svg xmlns="http://www.w3.org/2000/svg" xmlns:xlink="http://www.w3.org/1999/xlink" width="1080" zoomAndPan="magnify" viewBox="0 0 810 809.999993" height="1080" preserveAspectRatio="xMidYMid meet" version="1.0"><defs><clipPath id="66b84501c0"><path d="M 710 572 L 718.589844 572 L 718.589844 581 L 710 581 Z M 710 572 " clip-rule="nonzero"/></clipPath></defs><path fill="#ffffff" d="M 229.152344 683.527344 C 221.914062 676.085938 209.261719 663.832031 204.054688 660.546875 C 203.773438 660.402344 203.351562 660.285156 203.035156 660.285156 C 203.125 663.808594 236.011719 695.660156 239.691406 695.785156 C 239.597656 694.503906 233.910156 688.414062 229.152344 683.527344 " fill-opacity="1" fill-rule="nonzero"/><path fill="#ffffff" d="M 271.859375 714.371094 C 264.257812 707.886719 250.480469 697.265625 243.679688 694.632812 C 243.175781 694.5 242.421875 694.296875 242.164062 694.53125 C 240.84375 695.714844 249.484375 703.851562 258.382812 710.710938 C 269.78125 719.492188 280.175781 725.882812 282.042969 725.25 C 282.65625 723.875 275.925781 717.847656 271.859375 714.371094 " fill-opacity="1" fill-rule="nonzero"/><path fill="#ffffff" d="M 129.714844 548.378906 C 129.546875 548.210938 129.25 548.039062 129.015625 548.035156 C 128.953125 552.644531 150.921875 594.65625 153.5 594.851562 C 153.53125 592.992188 149.140625 583.796875 146.523438 578.480469 C 141.949219 569.191406 133.339844 552.8125 129.714844 548.378906 " fill-opacity="1" fill-rule="nonzero"/><path fill="#ffffff" d="M 157.054688 593.457031 C 156.601562 593.242188 156.035156 592.972656 155.75 593.265625 C 152.894531 596.167969 178.683594 634.289062 184.792969 636.195312 C 187.160156 636.9375 184.585938 630.605469 178.539062 620.808594 C 172.886719 611.648438 162.484375 597.105469 157.054688 593.457031 " fill-opacity="1" fill-rule="nonzero"/><path fill="#ffffff" d="M 217.105469 658.589844 C 210.863281 650.257812 198.824219 637.1875 191.601562 634.222656 C 191 634.070312 190.179688 633.863281 189.710938 634.183594 C 184.742188 637.628906 213.8125 671.644531 222.800781 672.90625 C 226.109375 673.371094 223.765625 667.480469 217.105469 658.589844 " fill-opacity="1" fill-rule="nonzero"/><path fill="#ffffff" d="M 110.339844 499.382812 C 110.625 500.289062 111.066406 501.617188 111.625 503.242188 C 111.183594 501.929688 110.734375 500.605469 110.332031 499.355469 L 110.339844 499.382812 " fill-opacity="1" fill-rule="nonzero"/><path fill="#ffffff" d="M 142.335938 563.898438 C 145.789062 565.847656 145.183594 558.085938 140.925781 545.828125 C 137.253906 535.25 129.613281 518.59375 124.132812 514.695312 C 123.808594 514.554688 123.34375 514.332031 123 514.398438 C 117.285156 515.492188 134.453125 559.4375 142.335938 563.898438 " fill-opacity="1" fill-rule="nonzero"/><path fill="#ffffff" d="M 174.433594 607.027344 C 179.15625 608.589844 178.820312 601.160156 173.648438 589.75 C 169.175781 579.878906 159.480469 564.515625 151.933594 561.253906 C 151.28125 561.109375 150.394531 560.902344 149.730469 561.316406 C 143.128906 565.457031 163.675781 603.480469 174.433594 607.027344 " fill-opacity="1" fill-rule="nonzero"/><path fill="#ffffff" d="M 212.144531 645.410156 C 219.023438 647.675781 219.554688 640.4375 213.328125 629.28125 C 207.445312 618.742188 195.832031 605.945312 187.335938 603.65625 C 186.511719 603.5625 185.386719 603.433594 184.523438 603.890625 C 176.398438 608.183594 198.082031 640.777344 212.144531 645.410156 " fill-opacity="1" fill-rule="nonzero"/><path fill="#ffffff" d="M 104.796875 464.734375 C 104.613281 464.574219 104.34375 464.382812 104.113281 464.316406 C 100.667969 466.464844 114.191406 515.746094 118.582031 517.046875 C 120.324219 515.964844 117.125 502.09375 116.101562 497.871094 C 113.601562 487.511719 108.3125 469.355469 104.796875 464.734375 " fill-opacity="1" fill-rule="nonzero"/><path fill="#ffffff" d="M 139.386719 529.199219 C 144.949219 532.277344 146.972656 523.402344 143.898438 509.417969 C 141.453125 498.289062 134.660156 481.105469 127.21875 477.734375 C 126.722656 477.625 126.023438 477.484375 125.527344 477.59375 C 115.960938 479.691406 127.484375 522.617188 139.386719 529.199219 " fill-opacity="1" fill-rule="nonzero"/><path fill="#ffffff" d="M 170.699219 573.390625 C 178.648438 577.429688 181.773438 568.703125 177.394531 554.71875 C 174.074219 544.121094 165.058594 527.96875 155.394531 525.230469 C 154.746094 525.160156 153.859375 525.074219 153.226562 525.226562 C 141.898438 527.914062 155.613281 565.722656 170.699219 573.390625 " fill-opacity="1" fill-rule="nonzero"/><path fill="#ffffff" d="M 208.609375 613.257812 C 219.070312 618.078125 223.453125 609.714844 217.804688 595.722656 C 213.808594 585.816406 203.0625 570.988281 191.691406 569.03125 C 190.652344 569.003906 189.230469 568.964844 187.964844 569.5625 C 177.359375 574.589844 192.019531 605.621094 208.609375 613.257812 " fill-opacity="1" fill-rule="nonzero"/><path fill="#ffffff" d="M 114.996094 480.6875 C 118.933594 484.191406 120.726562 475.441406 119 461.175781 C 117.648438 450.035156 113.402344 432.59375 108.1875 428.707031 C 107.839844 428.5625 107.335938 428.363281 106.964844 428.429688 C 99.878906 429.699219 106.558594 473.164062 114.996094 480.6875 " fill-opacity="1" fill-rule="nonzero"/><path fill="#ffffff" d="M 155.527344 470.082031 C 154.300781 458.867188 148.375 441.84375 139.023438 439.09375 C 138.355469 439.03125 137.445312 438.960938 136.792969 439.113281 C 125.242188 441.8125 130.097656 479.8125 143.292969 489.9375 C 151.371094 496.132812 157.316406 486.484375 155.527344 470.082031 " fill-opacity="1" fill-rule="nonzero"/><path fill="#ffffff" d="M 189.144531 515.539062 C 186.90625 504.339844 178.667969 487.640625 167.347656 485.585938 C 166.535156 485.570312 165.429688 485.5625 164.640625 485.765625 C 151.5 489.144531 158.429688 524.128906 174.398438 535.019531 C 185.285156 542.445312 192.589844 532.792969 189.144531 515.539062 " fill-opacity="1" fill-rule="nonzero"/><path fill="#ffffff" d="M 229.46875 557.800781 C 226.476562 547.117188 216.476562 531.476562 203.601562 530.148438 C 202.691406 530.183594 201.453125 530.246094 200.574219 530.496094 C 186.160156 534.613281 195.609375 567.773438 213.878906 577.183594 C 226.273438 583.566406 233.992188 573.96875 229.46875 557.800781 " fill-opacity="1" fill-rule="nonzero"/><path fill="#ffffff" d="M 120.472656 442.785156 C 126.050781 447.585938 130.75 438.359375 130.523438 423.035156 C 130.363281 411.882812 126.984375 394.703125 119.988281 391.421875 C 119.480469 391.316406 118.769531 391.195312 118.257812 391.300781 C 108.28125 393.371094 110.019531 433.789062 120.472656 442.785156 " fill-opacity="1" fill-rule="nonzero"/><path fill="#ffffff" d="M 174.824219 429.027344 C 174.605469 417.769531 169.449219 401.007812 158.691406 398.992188 C 158.285156 398.984375 157.738281 398.941406 157.332031 398.972656 C 143.039062 399.992188 141.4375 434.28125 155.046875 447.886719 C 164.84375 457.6875 175.195312 447.816406 174.824219 429.027344 " fill-opacity="1" fill-rule="nonzero"/><path fill="#ffffff" d="M 207.683594 473.15625 C 206.476562 461.851562 199.132812 445.320312 186.589844 443.96875 C 186.121094 443.988281 185.496094 443.976562 185.03125 444.03125 C 168.867188 445.964844 170.160156 480.519531 186.878906 493.335938 C 198.796875 502.472656 209.6875 491.910156 207.683594 473.15625 " fill-opacity="1" fill-rule="nonzero"/><path fill="#ffffff" d="M 247.480469 515.625 C 245.394531 504.34375 236.136719 488.15625 222.074219 487.480469 C 221.550781 487.527344 220.851562 487.546875 220.335938 487.628906 C 203.734375 490.253906 206.152344 522.339844 223.933594 535.3125 C 238.320312 545.8125 251.082031 535.136719 247.480469 515.625 " fill-opacity="1" fill-rule="nonzero"/><path fill="#ffffff" d="M 132.875 402.398438 C 139.972656 410.605469 148.558594 401.113281 149.886719 383.589844 C 150.726562 372.496094 148.03125 355.6875 139.402344 353.0625 C 139.070312 353.035156 138.636719 352.957031 138.304688 352.964844 C 126.320312 353.171875 122.257812 390.132812 132.875 402.398438 " fill-opacity="1" fill-rule="nonzero"/><path fill="#ffffff" d="M 174.59375 406.128906 C 184.691406 417.558594 198.292969 407.238281 199.265625 387.410156 C 199.8125 376.199219 195.347656 359.8125 183.691406 358.488281 C 166.226562 359.234375 162.578125 392.523438 174.59375 406.128906 " fill-opacity="1" fill-rule="nonzero"/><path fill="#ffffff" d="M 231.414062 430.019531 C 230.988281 418.6875 224.355469 402.417969 210.925781 401.714844 C 191.296875 403.425781 190.488281 437.140625 205.394531 450.183594 C 217.808594 461.046875 232.152344 449.925781 231.414062 430.019531 " fill-opacity="1" fill-rule="nonzero"/><path fill="#ffffff" d="M 241.453125 491.242188 C 256.316406 504.035156 272.839844 492.660156 270.4375 471.28125 C 269.160156 459.90625 260.632812 443.863281 245.675781 443.808594 C 225.324219 446.320312 225.457031 477.46875 241.453125 491.242188 " fill-opacity="1" fill-rule="nonzero"/><path fill="#ffffff" d="M 174.957031 343.832031 C 176.5625 332.839844 174.453125 316.496094 164.742188 314.585938 C 149.28125 314.386719 142.949219 350.050781 152.910156 362.441406 C 160.710938 372.144531 172.25 362.40625 174.957031 343.832031 " fill-opacity="1" fill-rule="nonzero"/><path fill="#ffffff" d="M 301.03125 680.691406 C 313.21875 683.777344 318.054688 676.09375 311.375 664.242188 C 306.648438 655.851562 293.976562 643.835938 280.597656 643.367188 C 278.777344 643.503906 276.894531 643.644531 275.058594 644.921875 C 264.714844 652.125 281.949219 675.863281 301.03125 680.691406 " fill-opacity="1" fill-rule="nonzero"/><path fill="#ffffff" d="M 323.285156 629.5625 C 319.5 620.308594 307.464844 607.3125 292.570312 607.40625 C 291.191406 607.566406 289.300781 607.785156 287.527344 608.628906 C 273.933594 615.054688 284.636719 639.769531 304.371094 647.511719 C 319.574219 653.480469 329.296875 644.257812 323.285156 629.5625 " fill-opacity="1" fill-rule="nonzero"/><path fill="#ffffff" d="M 341.285156 590.351562 C 338.304688 580.269531 326.832031 566.363281 310.65625 567.035156 C 310.0625 567.128906 309.265625 567.210938 308.679688 567.335938 C 290.875 571.097656 294.148438 597.511719 313.832031 608.894531 C 331.277344 618.980469 346.671875 608.582031 341.285156 590.351562 " fill-opacity="1" fill-rule="nonzero"/><path fill="#ffffff" d="M 333.792969 522.457031 C 333.160156 522.574219 332.308594 522.691406 331.683594 522.84375 C 312.453125 527.488281 313.542969 556.128906 333.402344 567.914062 C 350.867188 578.28125 368.480469 566.253906 364.296875 546.820312 C 361.957031 535.96875 350.949219 521.234375 333.792969 522.457031 " fill-opacity="1" fill-rule="nonzero"/><path fill="#ffffff" d="M 303.964844 708.632812 C 312.3125 709.71875 313.347656 703.410156 306.308594 694.265625 C 300.550781 686.777344 287.191406 675.785156 275.53125 674.769531 C 273.96875 674.804688 272.355469 674.847656 271.023438 675.878906 C 262.773438 682.253906 287.09375 706.4375 303.964844 708.632812 " fill-opacity="1" fill-rule="nonzero"/><path fill="#ffffff" d="M 313.085938 731.546875 C 317.742188 731.4375 315.941406 726.644531 308.609375 719.628906 C 302.207031 713.5 288.210938 703.191406 277.910156 701.625 C 276.625 701.570312 275.304688 701.507812 274.484375 702.296875 C 269.054688 707.503906 301.164062 731.835938 313.085938 731.546875 " fill-opacity="1" fill-rule="nonzero"/><path fill="#ffffff" d="M 256.765625 615.097656 C 272.484375 622.816406 282.726562 612.628906 276.695312 595.277344 C 272.921875 584.421875 260.714844 568.839844 245.402344 568.210938 C 244.316406 568.296875 242.855469 568.433594 241.8125 568.746094 C 225.671875 573.578125 235.738281 604.769531 256.765625 615.097656 " fill-opacity="1" fill-rule="nonzero"/><path fill="#ffffff" d="M 253.933594 650.421875 C 266.308594 654.636719 271.433594 645.78125 264.691406 631.847656 C 259.867188 621.878906 246.917969 607.261719 233.238281 605.988281 C 231.988281 606.023438 230.277344 606.074219 228.761719 606.78125 C 215.761719 612.84375 233.40625 643.429688 253.933594 650.421875 " fill-opacity="1" fill-rule="nonzero"/><path fill="#ffffff" d="M 116.015625 375.613281 C 117.019531 363.691406 116.113281 345.113281 110.9375 341.136719 C 110.550781 340.988281 109.984375 340.804688 109.574219 340.875 C 100.820312 342.386719 98.324219 388.90625 106.574219 396.800781 C 110.476562 400.535156 114.714844 391.03125 116.015625 375.613281 " fill-opacity="1" fill-rule="nonzero"/><path fill="#ffffff" d="M 98.640625 376.796875 C 98.417969 376.617188 98.082031 376.34375 97.800781 376.371094 C 92.539062 376.953125 94.921875 427.566406 100.480469 433.378906 C 102.835938 435.839844 104.386719 426.820312 104.09375 412.40625 C 103.851562 400.394531 101.996094 381.410156 98.640625 376.796875 " fill-opacity="1" fill-rule="nonzero"/><path fill="#ffffff" d="M 293.007812 554.289062 C 290.359375 543.507812 279.730469 528.332031 264.402344 528.351562 C 263.292969 528.484375 261.800781 528.6875 260.738281 529.035156 C 244.5625 534.375 249.4375 563.015625 268.410156 574.105469 C 284.171875 583.320312 297.503906 572.574219 293.007812 554.289062 " fill-opacity="1" fill-rule="nonzero"/><path fill="#ffffff" d="M 286.003906 530.207031 C 302.523438 541.960938 319.695312 530.003906 316.128906 509.234375 C 314.175781 497.878906 304.125 482.164062 287.882812 482.773438 C 287.28125 482.867188 286.46875 482.957031 285.875 483.085938 C 267.449219 487.117188 267.53125 517.0625 286.003906 530.207031 " fill-opacity="1" fill-rule="nonzero"/><path fill="#ffffff" d="M 256.296875 679.058594 C 264.222656 680.726562 265.105469 673.980469 258.304688 663.699219 C 252.796875 655.371094 240.148438 642.851562 229.269531 641.105469 C 227.824219 641.050781 226.332031 641 225.097656 642.015625 C 217.675781 648.136719 241 675.832031 256.296875 679.058594 " fill-opacity="1" fill-rule="nonzero"/><path fill="#ffffff" d="M 265.886719 704.402344 C 270.023438 704.570312 268 699.144531 260.972656 691.210938 C 254.347656 683.730469 241.046875 672.191406 232.210938 669.941406 C 231.046875 669.796875 229.949219 669.65625 229.316406 670.449219 C 225.117188 675.75 255.535156 703.988281 265.886719 704.402344 " fill-opacity="1" fill-rule="nonzero"/><path fill="#ffffff" d="M 97.492188 329.019531 C 97.445312 328.914062 97.382812 328.769531 97.339844 328.660156 C 97.230469 328.65625 97.085938 328.648438 96.980469 328.636719 C 94.234375 333.261719 91.585938 375.46875 93.722656 380.550781 C 93.832031 380.554688 93.972656 380.5625 94.082031 380.5625 C 95.28125 378.363281 96.289062 367.847656 96.785156 361.773438 C 97.617188 351.574219 98.542969 333.664062 97.492188 329.019531 " fill-opacity="1" fill-rule="nonzero"/><path fill="#ffffff" d="M 108.597656 326.820312 C 110.625 316.085938 112.320312 299.199219 109.738281 295.277344 C 109.53125 295.121094 109.203125 294.90625 108.945312 294.933594 C 103.273438 295.566406 96.015625 340.691406 100.769531 345.761719 C 102.789062 347.910156 106.152344 339.769531 108.597656 326.820312 " fill-opacity="1" fill-rule="nonzero"/><path fill="#ffffff" d="M 127.765625 291.144531 C 130.78125 280.609375 133.230469 264.273438 129.234375 260.957031 C 129.058594 260.898438 128.835938 260.78125 128.65625 260.75 C 120.859375 259.464844 109.300781 299.910156 114.761719 309.375 C 117.585938 314.269531 123.539062 305.921875 127.765625 291.144531 " fill-opacity="1" fill-rule="nonzero"/><path fill="#ffffff" d="M 135.839844 272.867188 C 139.195312 278.992188 147.496094 270.457031 153.257812 254.960938 C 157.074219 244.683594 160.121094 229.007812 154.941406 226.328125 C 145.25 224.609375 129.894531 262.011719 135.839844 272.867188 " fill-opacity="1" fill-rule="nonzero"/><path fill="#ffffff" d="M 134.449219 336.742188 C 136.386719 325.878906 136.304688 309.21875 130.054688 306.179688 C 129.804688 306.132812 129.476562 306.035156 129.222656 306.019531 C 119.121094 305.484375 111.699219 344.234375 119.773438 355.382812 C 124.453125 361.847656 131.585938 352.789062 134.449219 336.742188 " fill-opacity="1" fill-rule="nonzero"/><path fill="#ffffff" d="M 140.597656 316.605469 C 145.960938 324.5 155.859375 315.234375 160.207031 298.25 C 162.9375 287.582031 163.398438 271.480469 155.855469 269.101562 C 142.398438 268.027344 133.003906 305.433594 140.597656 316.605469 " fill-opacity="1" fill-rule="nonzero"/><path fill="#ffffff" d="M 229.503906 342.292969 C 230.632812 331.238281 226.71875 315.371094 214.488281 314.707031 C 197.308594 316.273438 190.632812 346.929688 200.878906 360.59375 C 210.785156 373.796875 227.371094 363.191406 229.503906 342.292969 " fill-opacity="1" fill-rule="nonzero"/><path fill="#ffffff" d="M 260.933594 383.046875 C 261.097656 371.804688 255.027344 355.941406 241.011719 355.871094 C 221.351562 358.359375 217.292969 389.261719 230.628906 402.925781 C 243.066406 415.667969 260.625 404.148438 260.933594 383.046875 " fill-opacity="1" fill-rule="nonzero"/><path fill="#ffffff" d="M 267.535156 444.105469 C 282.125 456.269531 300.488281 443.921875 299.230469 422.792969 C 298.554688 411.425781 290.597656 395.667969 275.035156 396.226562 C 253.601562 399.589844 251.71875 430.914062 267.535156 444.105469 " fill-opacity="1" fill-rule="nonzero"/><path fill="#ffffff" d="M 315.550781 435.488281 C 294.210938 439.425781 292.71875 468.707031 308.46875 482.269531 C 324.78125 496.3125 345.917969 483.566406 343.261719 461.289062 C 341.902344 449.871094 332.402344 434.316406 315.550781 435.488281 " fill-opacity="1" fill-rule="nonzero"/><path fill="#ffffff" d="M 196.226562 273.179688 C 180.40625 273.960938 171.433594 306.425781 180.128906 319.113281 C 187.777344 330.273438 201.984375 320.226562 205.898438 300.894531 C 208.082031 290.117188 206.523438 274.398438 196.226562 273.179688 " fill-opacity="1" fill-rule="nonzero"/><path fill="#ffffff" d="M 167.367188 277.128906 C 172.902344 286.320312 185.132812 276.964844 190.742188 259.253906 C 194.039062 248.847656 194.960938 233.425781 186.695312 231.734375 C 172.46875 231.6875 160.359375 265.496094 167.367188 277.128906 " fill-opacity="1" fill-rule="nonzero"/><path fill="#ffffff" d="M 208.628906 491.320312 L 208.453125 491.613281 L 208.5 491.644531 Z M 208.628906 491.320312 " fill-opacity="1" fill-rule="nonzero"/><path fill="#ffffff" d="M 219.132812 534.191406 L 219.453125 534.476562 L 219.171875 534.191406 C 219.15625 534.191406 219.144531 534.191406 219.132812 534.191406 " fill-opacity="1" fill-rule="nonzero"/><path fill="#ffffff" d="M 352.164062 674.449219 C 367.859375 680.609375 378.714844 672.140625 372.546875 658.558594 C 368.90625 650.539062 357.246094 639.542969 342.738281 640.1875 C 341.222656 640.417969 339.339844 640.703125 337.542969 641.613281 C 325.421875 647.75 334.167969 667.386719 352.164062 674.449219 " fill-opacity="1" fill-rule="nonzero"/><path fill="#ffffff" d="M 349.820312 706.09375 C 361.757812 708.40625 366.660156 701.253906 360.105469 691.085938 C 355.875 684.523438 344.125 674.175781 330.609375 674.328125 C 329.710938 674.386719 326.988281 674.574219 324.878906 676.097656 C 315.359375 682.960938 331.675781 702.589844 349.820312 706.09375 " fill-opacity="1" fill-rule="nonzero"/><path fill="#ffffff" d="M 290.808594 337.492188 C 291.386719 326.957031 286.097656 312.292969 272.523438 312.6875 C 255.964844 314.429688 247.839844 341.132812 259.542969 355.335938 C 270.691406 368.859375 289.683594 358.019531 290.808594 337.492188 " fill-opacity="1" fill-rule="nonzero"/><path fill="#ffffff" d="M 246.507812 273.746094 C 230.160156 275.890625 222.554688 303.613281 231.507812 315.941406 C 240.320312 328.082031 256.839844 318.550781 260.015625 299.492188 C 261.765625 288.964844 258.738281 274.023438 246.507812 273.746094 " fill-opacity="1" fill-rule="nonzero"/><path fill="#ffffff" d="M 104.476562 294.878906 C 106.328125 293.882812 109.601562 283.699219 111.386719 277.714844 C 112.09375 275.347656 118.257812 254.453125 117.34375 249.367188 C 117.265625 249.21875 117.109375 249.019531 116.949219 248.957031 C 116.867188 248.992188 116.742188 249.027344 116.664062 249.082031 C 112.441406 251.925781 101.277344 293.871094 104.476562 294.878906 " fill-opacity="1" fill-rule="nonzero"/><path fill="#ffffff" d="M 390.164062 620.707031 C 387.253906 612.496094 377.132812 600.722656 361.160156 601.960938 C 359.957031 602.179688 358.34375 602.476562 357.191406 602.886719 C 342.273438 608.199219 346.628906 629.761719 364.363281 638.382812 C 379.648438 645.8125 396.152344 637.628906 390.164062 620.707031 " fill-opacity="1" fill-rule="nonzero"/><path fill="#ffffff" d="M 325.671875 748.511719 C 327.882812 748.152344 322.917969 743.921875 317.535156 740.089844 C 311.421875 735.738281 297.734375 726.984375 289.65625 724.996094 C 288.691406 724.867188 287.855469 724.746094 287.640625 725.289062 C 286.128906 729.109375 319.539062 749.511719 325.671875 748.511719 " fill-opacity="1" fill-rule="nonzero"/><path fill="#ffffff" d="M 351.625 731.453125 C 360.015625 732.035156 361.152344 726.863281 354.332031 719.15625 C 349.859375 714.101562 338.066406 704.441406 325.445312 704.058594 C 323.753906 704.175781 322.160156 704.285156 320.832031 705.277344 C 313.125 711.039062 335.859375 730.359375 351.625 731.453125 " fill-opacity="1" fill-rule="nonzero"/><path fill="#ffffff" d="M 211.699219 276.203125 C 217.824219 285.230469 232.128906 278.324219 236.855469 260.152344 C 238.589844 253.492188 240.5 236.019531 228.691406 235.179688 C 213.761719 236.585938 204.183594 265.132812 211.699219 276.203125 " fill-opacity="1" fill-rule="nonzero"/><path fill="#ffffff" d="M 130.554688 244.679688 C 133.699219 236.949219 139.09375 221.355469 137 217.691406 C 136.894531 217.621094 136.769531 217.496094 136.648438 217.453125 C 131.835938 215.800781 116.578125 254.003906 119.460938 260.484375 C 120.875 263.648438 125.539062 257.003906 130.554688 244.679688 " fill-opacity="1" fill-rule="nonzero"/><path fill="#ffffff" d="M 306.085938 351.664062 C 285.90625 355.378906 284.058594 382.484375 295.25 394.152344 C 307.257812 406.667969 328.484375 397.863281 327.945312 375.621094 C 327.589844 361.019531 317.785156 350.273438 306.085938 351.664062 " fill-opacity="1" fill-rule="nonzero"/><path fill="#ffffff" d="M 389.367188 498.304688 C 387.632812 488.355469 378.847656 474.167969 361.746094 475.859375 C 341.5 479.058594 341.167969 507.0625 356.847656 518.714844 C 371.851562 529.859375 393.132812 519.902344 389.367188 498.304688 " fill-opacity="1" fill-rule="nonzero"/><path fill="#ffffff" d="M 382.429688 597.101562 C 398.960938 607.453125 417.238281 596.746094 412.992188 579.199219 C 410.007812 566.871094 396.714844 557.644531 384.542969 559.445312 C 383.925781 559.574219 383.089844 559.707031 382.476562 559.875 C 365.710938 564.34375 365.679688 586.613281 382.429688 597.101562 " fill-opacity="1" fill-rule="nonzero"/><path fill="#ffffff" d="M 185.167969 193.21875 C 174.625 192.554688 160.238281 223.933594 164.238281 233.136719 C 167.136719 239.800781 176.675781 232.375 183.140625 218.425781 C 187.097656 209.882812 191.144531 195.492188 185.167969 193.21875 " fill-opacity="1" fill-rule="nonzero"/><path fill="#ffffff" d="M 359.664062 751.792969 C 363.769531 751.449219 362.382812 747.632812 356.285156 742.519531 C 347.988281 735.5625 334.625 729.210938 327.683594 728.917969 C 326.410156 728.945312 325.207031 728.96875 324.425781 729.703125 C 319.214844 734.609375 348.195312 752.777344 359.664062 751.792969 " fill-opacity="1" fill-rule="nonzero"/><path fill="#ffffff" d="M 219.457031 196.859375 C 207.628906 197.628906 194.324219 223.503906 199.6875 235.308594 C 203.964844 244.726562 216.894531 235.976562 222.742188 219.707031 C 225.925781 210.859375 227.007812 197.917969 219.457031 196.859375 " fill-opacity="1" fill-rule="nonzero"/><path fill="#ffffff" d="M 141.621094 226.105469 C 143.179688 230.242188 150.046875 222.902344 156.328125 210.386719 C 160.515625 202.039062 165.449219 188.5 162.726562 185.972656 C 162.710938 185.96875 162.695312 185.953125 162.675781 185.945312 C 156.34375 183.492188 138.4375 217.644531 141.621094 226.105469 " fill-opacity="1" fill-rule="nonzero"/><path fill="#ffffff" d="M 346.128906 389.886719 C 327.992188 392.730469 322.800781 419.222656 337.839844 432.1875 C 352.585938 444.90625 372.585938 432.882812 370.761719 412.398438 C 369.851562 402.167969 361.605469 388.417969 346.128906 389.886719 " fill-opacity="1" fill-rule="nonzero"/><path fill="#ffffff" d="M 421.421875 684.921875 C 417.625 675.761719 404.171875 668.296875 393.738281 669.5625 C 392.78125 669.734375 391.5 669.972656 390.585938 670.296875 C 379.011719 674.421875 381.90625 690.023438 399.628906 697.535156 C 415.457031 704.242188 425.960938 695.871094 421.421875 684.921875 " fill-opacity="1" fill-rule="nonzero"/><path fill="#ffffff" d="M 408.6875 714.957031 C 404.742188 708.929688 393.023438 700.875 381.273438 701.417969 C 379.160156 701.636719 377.425781 702.222656 376.121094 703.171875 C 367.832031 709.191406 380.535156 723.859375 397.035156 727.320312 C 409.710938 729.972656 413.773438 722.726562 408.6875 714.957031 " fill-opacity="1" fill-rule="nonzero"/><path fill="#ffffff" d="M 304.855469 269.839844 C 291.1875 271.640625 281.296875 294.855469 292.15625 308.171875 C 302.183594 320.464844 319.675781 310.816406 321.402344 292.035156 C 322.300781 282.289062 317.046875 269.152344 304.855469 269.839844 " fill-opacity="1" fill-rule="nonzero"/><path fill="#ffffff" d="M 291.621094 255.167969 C 293.757812 242.957031 287.929688 232.484375 279.398438 233.191406 C 265.101562 235.589844 256.09375 259.417969 265.015625 271.246094 C 273.542969 282.546875 288.855469 271.003906 291.621094 255.167969 " fill-opacity="1" fill-rule="nonzero"/><path fill="#ffffff" d="M 141.789062 200.371094 C 143.558594 197.085938 152.375 180.511719 152.058594 176.375 C 152.011719 176.300781 151.976562 176.179688 151.90625 176.128906 C 149.140625 174.085938 130.59375 209.269531 132.066406 213.78125 C 132.640625 215.554688 136.367188 210.414062 141.789062 200.371094 " fill-opacity="1" fill-rule="nonzero"/><path fill="#ffffff" d="M 245.28125 233.039062 C 250.675781 242.429688 265.125 235.285156 269.585938 217.53125 C 271.617188 209.472656 271.304688 197.417969 262.144531 197.246094 C 248.859375 199.03125 239.433594 222.863281 245.28125 233.039062 " fill-opacity="1" fill-rule="nonzero"/><path fill="#ffffff" d="M 337.886719 306.710938 C 321.894531 309.21875 315.476562 334.070312 327.785156 345.820312 C 339.726562 357.222656 358.265625 345.894531 357.839844 327.457031 C 357.636719 318.722656 352.042969 305.363281 337.886719 306.710938 " fill-opacity="1" fill-rule="nonzero"/><path fill="#ffffff" d="M 438.890625 648.320312 C 435.082031 638.492188 423.222656 631.789062 412.449219 633.382812 C 411.390625 633.59375 409.96875 633.886719 408.953125 634.257812 C 395.445312 639.105469 398.417969 656.679688 414.003906 664.101562 C 429.632812 671.542969 444.285156 662.253906 438.890625 648.320312 " fill-opacity="1" fill-rule="nonzero"/><path fill="#ffffff" d="M 402.472656 740.375 C 395.824219 733.523438 383.917969 728.300781 375.933594 728.734375 C 374.601562 728.875 372.375 729.109375 371.125 730.425781 C 365.796875 736.035156 385.617188 750.082031 399.40625 750.46875 C 407.0625 750.679688 408.351562 746.4375 402.472656 740.375 " fill-opacity="1" fill-rule="nonzero"/><path fill="#ffffff" d="M 218.625 160.199219 C 209.847656 159.386719 193.515625 185.488281 196.78125 195.109375 C 199.070312 201.851562 209.191406 196.359375 216.804688 181.289062 C 220.183594 174.59375 224.914062 161.578125 218.625 160.199219 " fill-opacity="1" fill-rule="nonzero"/><path fill="#ffffff" d="M 372.335938 767.1875 C 374.28125 766.796875 371.355469 764.207031 364.511719 760.277344 C 362.828125 759.308594 347.777344 750.78125 338.265625 749.421875 C 337.269531 749.367188 336.324219 749.3125 336 749.792969 C 333.835938 753.019531 366.097656 768.464844 372.335938 767.1875 " fill-opacity="1" fill-rule="nonzero"/><path fill="#ffffff" d="M 462.046875 609.046875 C 460.152344 601.367188 451.648438 590.6875 435.976562 592.746094 C 435.976562 592.746094 435.972656 592.746094 435.972656 592.746094 C 435.96875 592.75 435.96875 592.75 435.964844 592.75 C 435.964844 592.75 435.960938 592.75 435.960938 592.75 C 435.957031 592.75 435.957031 592.75 435.953125 592.75 C 435.953125 592.75 435.949219 592.75 435.945312 592.75 C 435.945312 592.75 435.941406 592.753906 435.941406 592.753906 C 435.9375 592.753906 435.933594 592.753906 435.933594 592.753906 C 435.933594 592.753906 435.929688 592.753906 435.925781 592.753906 C 433.527344 593.308594 428.542969 594.457031 425.160156 599.03125 C 417.085938 609.945312 428.011719 630.851562 449.101562 628.0625 C 449.101562 628.0625 449.105469 628.0625 449.109375 628.0625 C 449.109375 628.054688 449.113281 628.054688 449.113281 628.054688 C 449.113281 628.054688 449.117188 628.054688 449.117188 628.054688 C 449.121094 628.054688 449.121094 628.054688 449.125 628.054688 C 449.128906 628.054688 449.128906 628.054688 449.128906 628.054688 C 449.132812 628.054688 449.132812 628.054688 449.136719 628.050781 C 449.136719 628.050781 449.140625 628.050781 449.144531 628.050781 C 449.144531 628.050781 449.148438 628.050781 449.148438 628.050781 C 465.316406 624.332031 462.425781 610.601562 462.046875 609.046875 " fill-opacity="1" fill-rule="nonzero"/><path fill="#ffffff" d="M 438.84375 533.539062 C 437.304688 524.726562 428.585938 511.507812 411.734375 513.558594 C 392.101562 518.152344 392.203125 542.175781 407.527344 552.242188 C 423.226562 562.554688 441.957031 551.371094 438.84375 533.539062 " fill-opacity="1" fill-rule="nonzero"/><path fill="#ffffff" d="M 391.707031 427.761719 C 373.578125 431.109375 369.757812 457.15625 385.6875 468.746094 C 400.957031 479.855469 420.160156 467.335938 417.292969 448.144531 C 415.621094 436.925781 406.085938 425.96875 391.707031 427.761719 " fill-opacity="1" fill-rule="nonzero"/><path fill="#ffffff" d="M 122.417969 230.835938 C 125.066406 224.488281 131.316406 209.316406 132.097656 205.539062 C 132.113281 205.445312 132.109375 205.316406 132.117188 205.21875 C 132.046875 205.21875 131.960938 205.21875 131.894531 205.21875 C 129.28125 208.449219 114.644531 243.082031 115.867188 245.21875 C 116.253906 244.679688 117.164062 243.414062 122.417969 230.835938 " fill-opacity="1" fill-rule="nonzero"/><path fill="#ffffff" d="M 334.210938 755.898438 C 316.9375 746.941406 312.007812 744.78125 309.457031 743.855469 C 309.457031 743.855469 309.457031 743.855469 309.457031 743.851562 C 309.453125 743.851562 309.453125 743.851562 309.453125 743.851562 C 309.449219 743.851562 309.449219 743.851562 309.449219 743.851562 C 309.449219 743.851562 309.445312 743.851562 309.445312 743.851562 C 309.445312 743.851562 309.441406 743.851562 309.441406 743.851562 C 309.441406 743.851562 309.441406 743.84375 309.4375 743.84375 C 309.4375 743.84375 309.433594 743.84375 309.433594 743.84375 C 309.433594 743.84375 309.433594 743.84375 309.429688 743.84375 C 309.183594 743.773438 308.851562 743.679688 308.597656 743.644531 C 308.585938 743.699219 308.5625 743.785156 308.550781 743.839844 C 312.140625 747.238281 342.324219 761.824219 345.894531 762.371094 C 345.753906 762.074219 345.648438 761.835938 334.210938 755.898438 " fill-opacity="1" fill-rule="nonzero"/><path fill="#ffffff" d="M 169.871094 190.699219 C 171.144531 195.179688 178.179688 190.757812 186.25 177.230469 C 186.714844 176.453125 197.566406 158.136719 192.878906 155.246094 C 184.816406 153.976562 167.832031 183.492188 169.871094 190.699219 " fill-opacity="1" fill-rule="nonzero"/><path fill="#ffffff" d="M 405.632812 768.167969 C 405.632812 768.167969 405.636719 768.167969 405.636719 768.167969 C 405.636719 768.167969 405.636719 768.167969 405.640625 768.167969 C 405.644531 768.167969 405.644531 768.167969 405.644531 768.167969 C 405.648438 768.167969 405.648438 768.167969 405.648438 768.167969 C 405.648438 768.167969 405.648438 768.167969 405.652344 768.167969 C 405.65625 768.167969 405.65625 768.167969 405.65625 768.167969 C 405.933594 768.148438 406.300781 768.140625 406.578125 768.109375 C 410.4375 767.664062 409.386719 764.839844 403.898438 760.914062 C 396.132812 755.363281 384.46875 750.910156 377.894531 750.988281 C 376.722656 751.066406 375.511719 751.144531 374.746094 751.773438 C 370.5625 755.242188 391.847656 767.898438 405.632812 768.167969 " fill-opacity="1" fill-rule="nonzero"/><path fill="#ffffff" d="M 253.53125 161.800781 C 252.210938 161.941406 250.21875 162.148438 246.851562 164.886719 C 234.792969 174.671875 228.011719 197.929688 239.40625 198.753906 C 239.40625 198.753906 239.40625 198.753906 239.410156 198.753906 C 239.410156 198.753906 239.410156 198.753906 239.414062 198.753906 C 239.414062 198.753906 239.417969 198.753906 239.421875 198.753906 C 239.421875 198.753906 239.421875 198.753906 239.425781 198.753906 C 239.429688 198.753906 239.429688 198.753906 239.429688 198.753906 C 239.429688 198.753906 239.433594 198.753906 239.433594 198.753906 C 248.859375 197.789062 255.015625 183.820312 255.6875 182.226562 C 259.847656 172.367188 259.972656 161.808594 253.53125 161.800781 " fill-opacity="1" fill-rule="nonzero"/><path fill="#ffffff" d="M 177.8125 147.234375 C 174.8125 146.535156 152.265625 176.402344 155.289062 182.527344 C 155.289062 182.527344 155.289062 182.527344 155.292969 182.527344 C 155.292969 182.527344 155.292969 182.527344 155.292969 182.535156 C 155.292969 182.535156 155.292969 182.535156 155.296875 182.535156 C 155.296875 182.535156 155.296875 182.535156 155.296875 182.539062 C 155.296875 182.539062 155.300781 182.539062 155.300781 182.539062 C 157.90625 184.046875 167.015625 170.230469 168.042969 168.648438 C 171.296875 163.660156 179.441406 150.109375 178.101562 147.394531 C 178.015625 147.347656 177.910156 147.253906 177.8125 147.234375 " fill-opacity="1" fill-rule="nonzero"/><path fill="#ffffff" d="M 377.617188 343.191406 C 358.171875 347.761719 357.796875 372.101562 369.300781 381.839844 C 381.265625 391.960938 401.28125 382.824219 399.953125 363.425781 C 399.054688 350.285156 389.035156 341.210938 377.617188 343.191406 " fill-opacity="1" fill-rule="nonzero"/><path fill="#ffffff" d="M 422.804688 379.007812 C 406.660156 383.203125 401.996094 403.929688 414.621094 415.367188 C 429.164062 428.539062 447.953125 415.4375 446.46875 398.273438 C 445.664062 388.925781 436.988281 377.03125 422.804688 379.007812 " fill-opacity="1" fill-rule="nonzero"/><path fill="#ffffff" d="M 466.890625 483.785156 C 465.246094 471.539062 452.777344 462.09375 441.238281 464.355469 C 424.65625 468.730469 420.699219 490.34375 434.414062 501.652344 C 450.582031 514.988281 469.277344 501.527344 466.890625 483.785156 " fill-opacity="1" fill-rule="nonzero"/><path fill="#ffffff" d="M 488.46875 564.398438 C 486.464844 553.78125 474.21875 545.808594 463.265625 547.980469 C 446.988281 552.234375 443.863281 571.476562 457.871094 581.191406 C 473.878906 592.292969 491.382812 579.84375 488.46875 564.398438 " fill-opacity="1" fill-rule="nonzero"/><path fill="#ffffff" d="M 202.847656 156.207031 C 203.644531 161.953125 212.957031 154.433594 220.019531 144.246094 C 225.089844 136.945312 230.246094 126.074219 226.746094 124.664062 C 219.3125 124.410156 201.667969 147.695312 202.847656 156.207031 " fill-opacity="1" fill-rule="nonzero"/><path fill="#ffffff" d="M 468.070312 706.875 C 465.070312 699.492188 453.171875 693.566406 444.046875 694.914062 C 443.191406 695.085938 442.050781 695.324219 441.234375 695.621094 C 431.554688 699.15625 432.859375 711.152344 446.863281 717.253906 C 461.191406 723.496094 471.898438 716.285156 468.070312 706.875 " fill-opacity="1" fill-rule="nonzero"/><path fill="#ffffff" d="M 356.464844 765.0625 C 356.210938 765.023438 355.867188 764.984375 355.609375 764.984375 C 355.578125 765.046875 355.535156 765.132812 355.503906 765.203125 C 358.566406 768.214844 385.203125 777.527344 391.257812 778.453125 C 391.316406 778.402344 391.394531 778.328125 391.453125 778.277344 C 390.4375 777.632812 386.898438 776.105469 380.929688 773.734375 C 379.054688 772.988281 362.433594 766.417969 356.464844 765.0625 " fill-opacity="1" fill-rule="nonzero"/><path fill="#ffffff" d="M 232.484375 158.566406 C 234.488281 164.804688 244.300781 158.296875 251.230469 146.132812 C 254.996094 139.519531 258.96875 128.675781 253.585938 127.746094 C 244.804688 128.375 229.816406 150.261719 232.484375 158.566406 " fill-opacity="1" fill-rule="nonzero"/><path fill="#ffffff" d="M 419.027344 780.828125 C 420.511719 779.972656 414.179688 776.929688 412.203125 776.011719 C 404.585938 772.492188 393.035156 768.554688 387.644531 768.324219 C 386.785156 768.332031 385.898438 768.34375 385.632812 768.785156 C 383.722656 771.933594 414.933594 783.195312 419.027344 780.828125 " fill-opacity="1" fill-rule="nonzero"/><path fill="#ffffff" d="M 336.664062 227.804688 C 323.171875 230.808594 316.503906 251.496094 325.683594 261.855469 C 334.621094 271.9375 350.261719 262.585938 351.433594 246.46875 C 352.230469 235.476562 345.191406 226.578125 336.664062 227.804688 " fill-opacity="1" fill-rule="nonzero"/><path fill="#ffffff" d="M 311.746094 193.71875 C 299.707031 196.125 291.609375 215.824219 298.410156 226.160156 C 305.121094 236.34375 319.738281 227.921875 322.472656 212.296875 C 324.324219 201.714844 319.210938 192.863281 311.746094 193.71875 " fill-opacity="1" fill-rule="nonzero"/><path fill="#ffffff" d="M 442.925781 744.554688 C 454.746094 747.019531 459.4375 741.082031 454.984375 734.496094 C 450.714844 728.1875 439.386719 723.332031 431.222656 724.3125 C 429.675781 724.585938 428.210938 724.839844 426.707031 725.875 C 419.523438 730.8125 428.917969 741.632812 442.925781 744.554688 " fill-opacity="1" fill-rule="nonzero"/><path fill="#ffffff" d="M 184.160156 150.140625 C 184.6875 153.273438 190.957031 148.128906 198.433594 138.425781 C 198.5625 138.257812 211.117188 121.90625 208.75 119.273438 C 203.789062 117.917969 183.109375 143.878906 184.160156 150.140625 " fill-opacity="1" fill-rule="nonzero"/><path fill="#ffffff" d="M 445.472656 765.203125 C 452.140625 765.113281 453.363281 761.710938 448.382812 757.109375 C 444.4375 753.464844 435.078125 748.234375 425.484375 748.78125 C 424.332031 748.902344 422.234375 749.257812 421.148438 750.335938 C 416.390625 755.082031 433.210938 765.363281 445.472656 765.203125 " fill-opacity="1" fill-rule="nonzero"/><path fill="#ffffff" d="M 295.074219 160.464844 C 284.628906 161.5 274.53125 182.414062 280.070312 191.539062 C 284.621094 199.042969 297.21875 192.699219 301.300781 178.023438 C 303.289062 170.863281 303.273438 160.285156 295.074219 160.464844 " fill-opacity="1" fill-rule="nonzero"/><path fill="#ffffff" d="M 369.269531 262.410156 C 355.207031 264.933594 349.484375 286.410156 360.136719 296.707031 C 369.820312 306.070312 387.539062 297.835938 387.050781 280.300781 C 386.832031 272.269531 381.910156 260.875 369.269531 262.410156 " fill-opacity="1" fill-rule="nonzero"/><path fill="#ffffff" d="M 486.199219 673.03125 C 484.210938 667.410156 476.148438 659.152344 463.003906 660.933594 C 462.066406 661.101562 460.652344 661.4375 459.242188 662.027344 C 448.195312 666.679688 450.347656 680.59375 463.019531 686.429688 C 476.425781 692.605469 490.289062 684.59375 486.199219 673.03125 " fill-opacity="1" fill-rule="nonzero"/><path fill="#ffffff" d="M 160.914062 158.066406 C 166.242188 150.3125 172.777344 140.460938 173.65625 137.546875 C 173.617188 137.457031 173.570312 137.335938 173.539062 137.246094 C 170.410156 138.3125 151.621094 166.574219 152.375 169.074219 C 152.726562 168.949219 153.65625 168.628906 160.914062 158.066406 " fill-opacity="1" fill-rule="nonzero"/><path fill="#ffffff" d="M 187.300781 129.949219 C 187.429688 129.792969 200.261719 114.339844 200.277344 111.429688 C 200.238281 111.382812 200.1875 111.324219 200.148438 111.277344 C 196.515625 111.113281 174.585938 138.226562 176.449219 140.589844 C 178.058594 140.714844 183.9375 133.980469 187.300781 129.949219 " fill-opacity="1" fill-rule="nonzero"/><path fill="#ffffff" d="M 405.394531 780.867188 C 404.554688 780.808594 404.554688 780.808594 404.332031 781.023438 C 406.316406 782.972656 434.421875 789.914062 437.023438 789.097656 C 436.679688 788.90625 436.105469 788.582031 428.15625 786.375 C 416.71875 783.203125 409.058594 781.351562 405.394531 780.867188 " fill-opacity="1" fill-rule="nonzero"/><path fill="#ffffff" d="M 472.050781 414.570312 C 456.644531 418.144531 452.671875 438.910156 465.40625 449.285156 C 479.089844 460.425781 497.835938 449.382812 495.347656 431.644531 C 494.152344 423.109375 486.132812 412.167969 472.050781 414.570312 " fill-opacity="1" fill-rule="nonzero"/><path fill="#ffffff" d="M 497.621094 651.832031 C 497.625 651.832031 497.628906 651.832031 497.632812 651.832031 C 497.636719 651.832031 497.640625 651.832031 497.644531 651.832031 C 497.648438 651.828125 497.652344 651.828125 497.65625 651.828125 C 497.660156 651.828125 497.664062 651.828125 497.667969 651.828125 C 497.671875 651.828125 497.675781 651.820312 497.679688 651.820312 C 497.683594 651.820312 497.6875 651.820312 497.691406 651.820312 C 497.695312 651.820312 497.699219 651.816406 497.703125 651.816406 C 512.089844 648.226562 509.828125 636.644531 509.523438 635.332031 C 508.027344 628.929688 500.765625 620.195312 486.886719 622.386719 C 481.421875 623.511719 478.496094 626.40625 477.234375 628.027344 C 469.28125 638.277344 480.320312 654.480469 497.609375 651.835938 C 497.613281 651.835938 497.617188 651.835938 497.621094 651.832031 " fill-opacity="1" fill-rule="nonzero"/><path fill="#ffffff" d="M 287.152344 127.96875 C 278.695312 128.558594 267.070312 147.457031 269.878906 156.058594 C 272.222656 163.226562 283.007812 158.136719 288.875 144.425781 C 291.554688 138.164062 293.453125 128.160156 287.152344 127.96875 " fill-opacity="1" fill-rule="nonzero"/><path fill="#ffffff" d="M 217.890625 118.769531 C 217.78125 122.371094 224.796875 117.492188 232.902344 108.328125 C 237.074219 103.621094 245.023438 93.390625 242.992188 91.871094 C 237.785156 91.339844 218.078125 112.460938 217.890625 118.769531 " fill-opacity="1" fill-rule="nonzero"/><path fill="#ffffff" d="M 452.375 779.820312 C 454.796875 779.09375 453.335938 776.902344 448.648438 774.25 C 444.707031 772.011719 435.125 767.835938 427.082031 768.023438 C 427.078125 768.023438 427.078125 768.023438 427.070312 768.023438 C 427.070312 768.023438 427.066406 768.023438 427.066406 768.023438 C 427.0625 768.023438 427.0625 768.023438 427.058594 768.023438 C 427.054688 768.023438 427.054688 768.027344 427.050781 768.027344 C 427.050781 768.027344 427.046875 768.027344 427.046875 768.027344 C 427.042969 768.027344 427.042969 768.027344 427.039062 768.027344 C 427.039062 768.027344 427.035156 768.027344 427.03125 768.027344 C 427.03125 768.027344 427.027344 768.027344 427.027344 768.027344 C 426.070312 768.125 424.472656 768.285156 423.933594 769.101562 C 421.234375 773.164062 444.890625 782.082031 452.375 779.820312 " fill-opacity="1" fill-rule="nonzero"/><path fill="#ffffff" d="M 408.539062 296.777344 C 408.535156 296.78125 408.535156 296.78125 408.527344 296.78125 C 408.523438 296.78125 408.523438 296.78125 408.515625 296.78125 C 408.511719 296.785156 408.507812 296.785156 408.503906 296.785156 C 408.5 296.785156 408.496094 296.785156 408.492188 296.789062 C 408.488281 296.789062 408.488281 296.789062 408.480469 296.789062 C 408.476562 296.789062 408.476562 296.789062 408.472656 296.792969 C 408.464844 296.792969 408.460938 296.792969 408.457031 296.792969 C 408.453125 296.792969 408.449219 296.796875 408.445312 296.796875 C 391.226562 301.433594 391.363281 323.316406 401.824219 331.320312 C 413.707031 340.410156 429.945312 329.839844 428.558594 313.917969 C 427.890625 306.253906 421.863281 294.820312 408.539062 296.777344 " fill-opacity="1" fill-rule="nonzero"/><path fill="#ffffff" d="M 386.464844 777.621094 L 387.566406 777.945312 C 386.75 777.695312 385.902344 777.449219 385.109375 777.199219 L 386.464844 777.621094 " fill-opacity="1" fill-rule="nonzero"/><path fill="#ffffff" d="M 516.582031 515.820312 C 514.546875 504.96875 503.78125 497.792969 493.070312 500.15625 C 475.726562 505.027344 474.976562 525.726562 487.996094 534.15625 C 501.960938 543.191406 519.589844 531.878906 516.582031 515.820312 " fill-opacity="1" fill-rule="nonzero"/><path fill="#ffffff" d="M 239.332031 122.828125 C 240.207031 127.132812 248.476562 121.503906 256.027344 111.464844 C 259.609375 106.707031 265.839844 96.554688 262.226562 95.578125 C 256.527344 95.082031 237.820312 115.390625 239.332031 122.828125 " fill-opacity="1" fill-rule="nonzero"/><path fill="#ffffff" d="M 536.605469 593.25 C 535.652344 585.058594 526.363281 577.328125 514.554688 579.355469 C 500.917969 583.136719 497.027344 598.128906 507.496094 606.542969 C 520.757812 617.195312 538.175781 606.824219 536.605469 593.25 " fill-opacity="1" fill-rule="nonzero"/><path fill="#ffffff" d="M 463.21875 789.773438 C 464.363281 789.144531 459.234375 787.292969 457.636719 786.742188 C 451.101562 784.484375 440.710938 782 436.257812 782.054688 C 435.605469 782.089844 434.511719 782.152344 434.507812 782.667969 C 434.488281 785.253906 459.984375 791.5625 463.21875 789.773438 " fill-opacity="1" fill-rule="nonzero"/><path fill="#ffffff" d="M 453.5 330.589844 C 453.496094 330.589844 453.492188 330.589844 453.492188 330.59375 C 453.488281 330.59375 453.484375 330.59375 453.480469 330.59375 C 453.476562 330.59375 453.472656 330.597656 453.46875 330.597656 C 453.464844 330.597656 453.460938 330.597656 453.460938 330.597656 C 453.457031 330.601562 453.449219 330.601562 453.445312 330.601562 C 453.445312 330.605469 453.441406 330.605469 453.4375 330.605469 C 453.433594 330.605469 453.429688 330.609375 453.425781 330.609375 C 453.421875 330.609375 453.417969 330.609375 453.414062 330.609375 C 438.394531 334.976562 435.265625 355.550781 448.261719 364.480469 C 461.886719 373.839844 476.78125 360.9375 474.640625 346.335938 C 473.496094 338.503906 465.507812 328.675781 453.5 330.589844 " fill-opacity="1" fill-rule="nonzero"/><path fill="#ffffff" d="M 269.066406 122.9375 C 270.53125 127.917969 279.273438 122.09375 285.476562 112.019531 C 288.351562 107.339844 292.765625 97.5 288.0625 96.921875 C 280.367188 97.867188 267.050781 116.097656 269.066406 122.9375 " fill-opacity="1" fill-rule="nonzero"/><path fill="#ffffff" d="M 206.519531 112.046875 C 206.519531 112.046875 206.519531 112.046875 206.523438 112.046875 C 206.523438 112.046875 206.527344 112.046875 206.527344 112.046875 C 206.527344 112.046875 206.527344 112.046875 206.527344 112.054688 C 206.53125 112.054688 206.53125 112.054688 206.53125 112.054688 C 206.53125 112.054688 206.53125 112.054688 206.53125 112.058594 C 208.375 112.828125 216.894531 104.261719 219.460938 101.617188 C 219.980469 101.082031 232.171875 88.488281 231.574219 86.304688 C 231.515625 86.273438 231.433594 86.222656 231.367188 86.207031 C 228.855469 85.785156 204.785156 107.730469 206.519531 112.046875 " fill-opacity="1" fill-rule="nonzero"/><path fill="#ffffff" d="M 511.011719 724.796875 C 509.03125 720.53125 501.761719 715.144531 491.800781 716.511719 C 490.398438 716.769531 488.988281 717.242188 487.929688 717.8125 C 480.496094 721.800781 483.746094 730.777344 493.921875 734.367188 C 504.753906 738.191406 514.65625 732.644531 511.011719 724.796875 " fill-opacity="1" fill-rule="nonzero"/><path fill="#ffffff" d="M 357.828125 216.035156 C 365.71875 224.574219 379.15625 215.757812 379.289062 201.949219 C 379.355469 195.296875 375.441406 186.382812 366.535156 187.410156 C 355.601562 189.445312 350.070312 207.636719 357.828125 216.035156 " fill-opacity="1" fill-rule="nonzero"/><path fill="#ffffff" d="M 486.753906 758.222656 C 496.03125 759.902344 501.617188 755.917969 497.816406 750.324219 C 494.507812 745.449219 485.515625 742.066406 478.574219 743.085938 C 477.453125 743.300781 475.574219 743.667969 474.15625 744.792969 C 469.144531 748.777344 476.207031 756.304688 486.753906 758.222656 " fill-opacity="1" fill-rule="nonzero"/><path fill="#ffffff" d="M 342.09375 156.136719 C 331.097656 158.5625 325.898438 176.875 332.003906 183.863281 C 337.648438 190.332031 349.503906 183.882812 351.238281 170.660156 C 352.261719 162.898438 349.054688 155.136719 342.09375 156.136719 " fill-opacity="1" fill-rule="nonzero"/><path fill="#ffffff" d="M 530 693.894531 C 528.453125 689.328125 522.164062 683.175781 511.171875 684.96875 C 510.648438 685.078125 509.503906 685.382812 509.496094 685.386719 C 498.300781 688.789062 499.570312 700.132812 508.851562 704.960938 C 520.152344 710.84375 533.398438 703.914062 530 693.894531 " fill-opacity="1" fill-rule="nonzero"/><path fill="#ffffff" d="M 326.066406 125.558594 C 317.632812 126.636719 309.328125 143.835938 313.730469 151.121094 C 317.40625 157.203125 327.71875 151.953125 331.125 139.960938 C 332.828125 133.972656 332.886719 125.195312 326.066406 125.558594 " fill-opacity="1" fill-rule="nonzero"/><path fill="#ffffff" d="M 398.714844 219.4375 C 384.675781 223.105469 383.917969 241.722656 392.015625 248.707031 C 400.40625 255.9375 414.808594 248.699219 414.140625 234.339844 C 413.683594 224.550781 406.761719 217.863281 398.714844 219.4375 " fill-opacity="1" fill-rule="nonzero"/><path fill="#ffffff" d="M 488.296875 775.894531 C 493.582031 775.558594 494.625 773.105469 490.84375 769.925781 C 486.878906 766.59375 478.867188 763.621094 472.324219 764.417969 C 471.320312 764.578125 469.636719 764.855469 468.695312 765.738281 C 464.796875 769.394531 478.535156 776.511719 488.296875 775.894531 " fill-opacity="1" fill-rule="nonzero"/><path fill="#ffffff" d="M 493.765625 787.574219 C 495.65625 787 494.648438 785.632812 491.132812 784.003906 C 487.382812 782.273438 479.558594 779.832031 473.359375 780.226562 C 472.40625 780.320312 471.195312 780.554688 470.8125 781.140625 C 468.96875 783.949219 488.066406 789.296875 493.765625 787.574219 " fill-opacity="1" fill-rule="nonzero"/><path fill="#ffffff" d="M 277.023438 90.632812 C 277.703125 93.6875 284.582031 89.128906 291.179688 81.257812 C 296.371094 75.070312 300.1875 68.289062 297.589844 68.066406 C 291.496094 68.605469 275.925781 85.691406 277.023438 90.632812 " fill-opacity="1" fill-rule="nonzero"/><path fill="#ffffff" d="M 453.609375 791.035156 C 452.886719 791.027344 452.886719 791.027344 452.71875 791.179688 C 454.585938 792.359375 478.734375 795.570312 480.503906 794.867188 C 479.875 794.707031 479.050781 794.582031 472.621094 793.601562 C 462.476562 792.058594 456.890625 791.203125 453.609375 791.035156 " fill-opacity="1" fill-rule="nonzero"/><path fill="#ffffff" d="M 319.980469 109.347656 C 322.933594 102.777344 323.226562 95.679688 318.921875 96.011719 C 311.308594 97.402344 301.796875 113.308594 304.792969 119.644531 C 307.222656 124.777344 315.59375 119.101562 319.980469 109.347656 " fill-opacity="1" fill-rule="nonzero"/><path fill="#ffffff" d="M 241.207031 83.886719 C 240.832031 85.984375 246.480469 82.320312 254.34375 75.375 C 254.476562 75.261719 267.464844 63.675781 266.527344 62.132812 C 263.042969 61.496094 241.984375 79.589844 241.207031 83.886719 " fill-opacity="1" fill-rule="nonzero"/><path fill="#ffffff" d="M 523.820312 449.632812 C 507.445312 454.566406 508.105469 473.492188 517.773438 481.265625 C 529.070312 490.351562 547.707031 482.011719 545.296875 465.015625 C 543.738281 454.011719 534.101562 447.109375 523.820312 449.632812 " fill-opacity="1" fill-rule="nonzero"/><path fill="#ffffff" d="M 278.914062 66.0625 C 273.882812 65.964844 254.738281 84.164062 255.09375 88.699219 C 255.28125 91.0625 260.917969 88.085938 269.703125 79.164062 C 270.183594 78.679688 281.371094 67.277344 278.914062 66.0625 " fill-opacity="1" fill-rule="nonzero"/><path fill="#ffffff" d="M 544.757812 533.042969 C 530.035156 536.777344 528.296875 554.179688 538.707031 561.546875 C 550.347656 569.785156 567.1875 559.976562 565.199219 546.109375 C 564.273438 539.65625 557.910156 530.40625 544.757812 533.042969 " fill-opacity="1" fill-rule="nonzero"/><path fill="#ffffff" d="M 200.671875 101.878906 C 200.710938 101.804688 200.703125 101.691406 200.710938 101.613281 C 198.347656 102.667969 179.296875 125.203125 179.253906 126.988281 C 179.796875 126.660156 181.210938 125.15625 187.453125 117.882812 C 197.671875 105.972656 199.859375 103.230469 200.671875 101.878906 " fill-opacity="1" fill-rule="nonzero"/><path fill="#ffffff" d="M 502.566406 364.621094 C 486.066406 369.640625 487.4375 389.316406 498.066406 396.382812 C 510.363281 404.558594 525.6875 394.152344 523.292969 379.25 C 521.640625 368.980469 512.152344 362.28125 502.566406 364.621094 " fill-opacity="1" fill-rule="nonzero"/><path fill="#ffffff" d="M 437.691406 251.3125 C 423.90625 255.257812 422.734375 273.511719 432.792969 280.808594 C 443.3125 288.4375 457.078125 278.707031 455.101562 265.03125 C 454.199219 258.761719 448.671875 249.492188 437.691406 251.3125 " fill-opacity="1" fill-rule="nonzero"/><path fill="#ffffff" d="M 553.980469 658.46875 C 552.71875 652.242188 545.800781 646.632812 535.476562 648.523438 C 522.773438 651.472656 521.429688 664.082031 530.140625 670.09375 C 540.675781 677.355469 556.273438 669.753906 553.980469 658.46875 " fill-opacity="1" fill-rule="nonzero"/><path fill="#ffffff" d="M 214.527344 93.140625 C 214.65625 93.023438 227.230469 80.917969 228.058594 78.792969 C 228.058594 78.789062 228.058594 78.789062 228.058594 78.789062 C 228.058594 78.789062 228.058594 78.789062 228.019531 78.675781 C 225.316406 78.570312 203.894531 99.453125 204.390625 101.707031 C 205.347656 101.792969 211.15625 96.378906 214.527344 93.140625 " fill-opacity="1" fill-rule="nonzero"/><path fill="#ffffff" d="M 478.769531 311.953125 C 490.609375 319.699219 502.914062 308.558594 500.691406 296.210938 C 499.53125 289.777344 492.898438 281.191406 482.332031 283.195312 C 470.851562 286.113281 466.75 304.082031 478.769531 311.953125 " fill-opacity="1" fill-rule="nonzero"/><path fill="#ffffff" d="M 581.4375 617.964844 C 580.578125 611.472656 573.546875 605.699219 563.683594 607.664062 C 553.035156 610.355469 547.585938 623.238281 557.148438 630.390625 C 568.148438 638.617188 582.898438 629.058594 581.4375 617.964844 " fill-opacity="1" fill-rule="nonzero"/><path fill="#ffffff" d="M 482.296875 790.675781 C 481.25 790.769531 480.957031 790.859375 480.863281 791.128906 C 481.84375 793.066406 501.324219 795.191406 503.816406 794.242188 C 503.828125 794.191406 503.835938 794.125 503.847656 794.070312 C 503.644531 793.925781 503.109375 793.53125 498.347656 792.589844 C 496.574219 792.234375 487.464844 790.492188 482.296875 790.675781 " fill-opacity="1" fill-rule="nonzero"/><path fill="#ffffff" d="M 304.699219 88.71875 C 305.375 92.675781 312.019531 89.148438 317.886719 80.125 C 321.625 74.386719 323.722656 68.257812 320.605469 68.363281 C 314.957031 69.214844 303.808594 83.492188 304.699219 88.71875 " fill-opacity="1" fill-rule="nonzero"/><path fill="#ffffff" d="M 246.613281 69.238281 C 251.460938 65.324219 259.640625 58.535156 260.007812 57.015625 C 258.519531 55.683594 236.257812 73.660156 235.945312 76.445312 C 236.136719 76.640625 236.722656 77.226562 246.613281 69.238281 " fill-opacity="1" fill-rule="nonzero"/><path fill="#ffffff" d="M 387.4375 172.015625 C 393.453125 177.792969 404.027344 172.054688 403.714844 160.617188 C 403.589844 156.15625 401.230469 148.019531 393.164062 149.175781 C 383.917969 151.125 381.402344 166.21875 387.4375 172.015625 " fill-opacity="1" fill-rule="nonzero"/><path fill="#ffffff" d="M 535.378906 734.410156 C 534.78125 734.550781 533.984375 734.738281 533.40625 734.949219 C 526.175781 737.542969 527.785156 744.210938 534.21875 747.113281 C 541.585938 750.429688 552.050781 746.953125 549.652344 740.359375 C 548.507812 737.210938 543.761719 733.035156 535.378906 734.410156 " fill-opacity="1" fill-rule="nonzero"/><path fill="#ffffff" d="M 376.71875 132.070312 C 377.371094 125.742188 374.761719 119.75 369.261719 120.660156 C 360.753906 122.730469 357.140625 136.871094 361.972656 142.398438 C 366.507812 147.582031 375.632812 142.558594 376.71875 132.070312 " fill-opacity="1" fill-rule="nonzero"/><path fill="#ffffff" d="M 525.808594 768.339844 C 532.679688 769.609375 538.777344 767.042969 535.828125 762.574219 C 533.433594 758.941406 527.179688 756.859375 521.589844 757.835938 C 520.6875 758.027344 519.175781 758.351562 518.015625 759.179688 C 514.148438 761.921875 518.445312 766.976562 525.808594 768.339844 " fill-opacity="1" fill-rule="nonzero"/><path fill="#ffffff" d="M 569.320312 712.109375 C 568.460938 708.578125 563.96875 703.925781 555.132812 705.582031 C 544.664062 708.363281 545.199219 716.992188 551.453125 720.625 C 559.703125 725.417969 571.226562 719.925781 569.320312 712.109375 " fill-opacity="1" fill-rule="nonzero"/><path fill="#ffffff" d="M 554.261719 398.238281 C 539.929688 402.230469 540.601562 419.921875 549.574219 426.59375 C 559.738281 434.148438 576.03125 425.648438 573.167969 410.757812 C 572.097656 405.207031 566.773438 395.449219 554.261719 398.238281 " fill-opacity="1" fill-rule="nonzero"/><path fill="#ffffff" d="M 315.179688 41.980469 C 310.847656 42.21875 294.03125 56.496094 294.011719 59.957031 C 294 61.691406 298.554688 59.410156 306.191406 52.570312 C 306.300781 52.472656 317.175781 42.707031 315.179688 41.980469 " fill-opacity="1" fill-rule="nonzero"/><path fill="#ffffff" d="M 279.597656 57.316406 C 279.457031 58.769531 284.316406 55.941406 291.691406 50.265625 C 292.867188 49.363281 303.210938 41.371094 303.347656 39.773438 C 303.316406 39.742188 303.273438 39.703125 303.238281 39.667969 C 299.976562 39.460938 279.867188 54.476562 279.597656 57.316406 " fill-opacity="1" fill-rule="nonzero"/><path fill="#ffffff" d="M 570.484375 510.890625 C 580.265625 518.050781 596.496094 510.148438 594.472656 495.886719 C 593.6875 490.363281 588.816406 480.675781 575.976562 483.550781 C 560.375 488.648438 562.746094 505.222656 570.484375 510.890625 " fill-opacity="1" fill-rule="nonzero"/><path fill="#ffffff" d="M 420.71875 201.730469 C 428.617188 208.230469 439.398438 200.472656 437.9375 189.34375 C 437.277344 184.316406 433.164062 176.851562 424.9375 178.226562 C 415.617188 180.386719 412.9375 195.328125 420.71875 201.730469 " fill-opacity="1" fill-rule="nonzero"/><path fill="#ffffff" d="M 610.925781 572.679688 C 609.929688 565.539062 602.074219 560.890625 594.445312 562.917969 C 583.121094 566.597656 579.472656 579.542969 587.941406 586.003906 C 598.289062 593.894531 612.453125 583.671875 610.925781 572.679688 " fill-opacity="1" fill-rule="nonzero"/><path fill="#ffffff" d="M 527.191406 782.878906 C 530.472656 782.320312 530.921875 780.613281 528.277344 778.722656 C 526.105469 777.175781 520.492188 774.976562 514.683594 775.6875 C 512.78125 775.980469 511.984375 776.558594 511.648438 776.996094 C 509.378906 779.933594 520.273438 784.050781 527.191406 782.878906 " fill-opacity="1" fill-rule="nonzero"/><path fill="#ffffff" d="M 344.75 112.847656 C 347.730469 117.984375 355.460938 112.910156 357.878906 104.226562 C 359.488281 98.453125 358.234375 92.425781 353.867188 93.011719 C 347.234375 94.546875 341.441406 107.152344 344.75 112.847656 " fill-opacity="1" fill-rule="nonzero"/><path fill="#ffffff" d="M 580.011719 671.570312 C 571.285156 674.171875 567.875 682.773438 573.605469 687.714844 C 581.679688 694.679688 594.59375 687.839844 594 679.265625 C 593.621094 673.761719 586.691406 669.953125 580.011719 671.570312 " fill-opacity="1" fill-rule="nonzero"/><path fill="#ffffff" d="M 469.945312 233.136719 C 469.945312 233.136719 469.949219 233.136719 469.949219 233.136719 C 469.953125 233.136719 469.953125 233.136719 469.957031 233.136719 C 469.957031 233.136719 469.960938 233.136719 469.960938 233.136719 C 469.964844 233.136719 469.964844 233.136719 469.964844 233.128906 C 469.96875 233.136719 469.96875 233.128906 469.972656 233.128906 C 469.972656 233.128906 469.972656 233.128906 469.976562 233.128906 C 469.976562 233.128906 469.980469 233.128906 469.980469 233.128906 C 469.984375 233.128906 469.984375 233.125 469.984375 233.125 C 477.414062 230.714844 479.085938 223.222656 478.394531 218.78125 C 477.257812 211.445312 470.070312 205.988281 463.605469 207.542969 C 462.296875 207.960938 459.574219 208.828125 457.316406 212.355469 C 451.027344 222.167969 458.9375 235.179688 469.945312 233.136719 " fill-opacity="1" fill-rule="nonzero"/><path fill="#ffffff" d="M 527.382812 341.226562 C 538.804688 349.835938 551.488281 339.378906 549.238281 327.167969 C 547.890625 319.882812 540.667969 313.199219 531.34375 315.109375 C 520.054688 318.84375 517.761719 333.976562 527.382812 341.226562 " fill-opacity="1" fill-rule="nonzero"/><path fill="#ffffff" d="M 271.945312 52.613281 C 272.972656 52.9375 280.117188 48.164062 283.136719 46.101562 C 283.265625 46.011719 295.777344 37.433594 296.121094 36.097656 C 293.699219 35.507812 271.785156 50.476562 271.945312 52.613281 " fill-opacity="1" fill-rule="nonzero"/><path fill="#ffffff" d="M 347.453125 66.738281 C 342.457031 67.84375 334.804688 79.421875 336.769531 84.59375 C 338.507812 89.175781 345.359375 83.253906 348.351562 76.066406 C 350.28125 71.429688 350.308594 66.453125 347.453125 66.738281 " fill-opacity="1" fill-rule="nonzero"/><path fill="#ffffff" d="M 331.226562 42.753906 C 327.761719 42.84375 313.875 55.917969 313.960938 60.152344 C 314.011719 62.855469 320.222656 58.289062 325.328125 52.703125 C 328.351562 49.394531 333.1875 43.078125 331.226562 42.753906 " fill-opacity="1" fill-rule="nonzero"/><path fill="#ffffff" d="M 528.292969 789.484375 C 524.890625 788.375 518.566406 787.4375 515.195312 787.847656 C 514.574219 787.945312 513.542969 788.113281 513.382812 788.613281 C 512.664062 790.898438 527.761719 792.652344 530.527344 791.386719 C 531.640625 790.878906 530.101562 790.070312 528.292969 789.484375 " fill-opacity="1" fill-rule="nonzero"/><path fill="#ffffff" d="M 231.941406 69.917969 C 231.972656 69.867188 232.011719 69.792969 232.039062 69.742188 C 230.597656 70.375 212.761719 86.714844 211.832031 88.71875 C 212.160156 88.480469 212.160156 88.480469 219.527344 81.628906 C 228.949219 72.863281 231.1875 70.777344 231.941406 69.917969 " fill-opacity="1" fill-rule="nonzero"/><path fill="#ffffff" d="M 246.726562 60.976562 C 258.320312 52.136719 259.195312 51.113281 259.832031 50.367188 C 258.59375 49.699219 238.660156 64.949219 238.503906 66.6875 C 238.699219 66.703125 239.160156 66.738281 246.726562 60.976562 " fill-opacity="1" fill-rule="nonzero"/><path fill="#ffffff" d="M 319.847656 32.480469 C 320.335938 33.082031 323.398438 31.402344 330.769531 26.476562 C 332.328125 25.429688 340.132812 20.175781 340.496094 19.1875 C 340.472656 19.164062 340.445312 19.144531 340.425781 19.125 C 338.960938 18.933594 320.136719 29.96875 319.847656 32.480469 " fill-opacity="1" fill-rule="nonzero"/><path fill="#ffffff" d="M 621.742188 641.425781 C 621.75 641.304688 621.167969 630.109375 608.785156 633.445312 C 594.527344 637.804688 600.699219 649.210938 602.046875 650.585938 C 606.652344 655.304688 621.105469 652.796875 621.742188 641.425781 " fill-opacity="1" fill-rule="nonzero"/><path fill="#ffffff" d="M 349.832031 42.605469 C 346.039062 43.359375 337.472656 54.027344 337.933594 57.425781 C 338.28125 60.003906 343.167969 57.203125 347.265625 51.171875 C 348.257812 49.710938 353.046875 42.433594 349.832031 42.605469 " fill-opacity="1" fill-rule="nonzero"/><path fill="#ffffff" d="M 535.261719 794.429688 C 528.914062 794.160156 526.0625 794.125 523.976562 794.296875 C 522.898438 794.398438 522.859375 794.472656 522.796875 794.59375 C 524.214844 795.410156 537.519531 795.199219 539.445312 794.722656 C 539.328125 794.640625 539.273438 794.601562 535.261719 794.429688 " fill-opacity="1" fill-rule="nonzero"/><path fill="#ffffff" d="M 620.796875 537.066406 C 622.699219 538.492188 627.933594 541.292969 635.382812 536.386719 C 637.824219 534.777344 641.769531 531.019531 640.761719 523.917969 C 639.433594 514.617188 631.945312 513.351562 625.941406 515.097656 C 613.832031 519.351562 615.078125 532.777344 620.796875 537.066406 " fill-opacity="1" fill-rule="nonzero"/><path fill="#ffffff" d="M 602.042969 456.242188 C 607.976562 461.15625 624.53125 458.355469 622.878906 442.425781 C 622.863281 442.277344 620.738281 427.984375 606.828125 431.535156 C 591.972656 436 597.0625 452.117188 602.042969 456.242188 " fill-opacity="1" fill-rule="nonzero"/><path fill="#ffffff" d="M 580.105469 370.84375 C 581.25 371.625 587.304688 375.273438 594.199219 370.496094 C 597.214844 368.40625 600.507812 364.492188 599.046875 357.722656 C 597.152344 348.9375 590.859375 344.949219 582.628906 347.316406 C 570.550781 351.648438 573.277344 366.183594 580.105469 370.84375 " fill-opacity="1" fill-rule="nonzero"/><path fill="#ffffff" d="M 506.535156 259.914062 C 513.414062 263.925781 525.738281 260.210938 523.078125 247.851562 C 521.699219 241.449219 516.269531 235.839844 508.554688 237.503906 C 496.421875 240.90625 499.582031 255.859375 506.535156 259.914062 " fill-opacity="1" fill-rule="nonzero"/><path fill="#ffffff" d="M 292.851562 31.898438 C 292.855469 31.863281 292.808594 31.835938 292.792969 31.808594 C 290.800781 31.863281 273.664062 42.316406 271.285156 45.425781 C 272.324219 45.285156 274.78125 43.90625 281.023438 39.953125 C 289.882812 34.347656 292.535156 32.539062 292.851562 31.898438 " fill-opacity="1" fill-rule="nonzero"/><path fill="#ffffff" d="M 558.441406 768.84375 C 557.777344 769 556.660156 769.261719 555.851562 769.824219 C 553.847656 771.230469 554.535156 774.160156 559.605469 775.320312 C 563.925781 776.3125 569.847656 774.71875 567.84375 771.464844 C 566.617188 769.472656 563.234375 767.886719 558.441406 768.84375 " fill-opacity="1" fill-rule="nonzero"/><path fill="#ffffff" d="M 332.683594 33.910156 C 334.304688 33.320312 336.519531 32.199219 341.738281 28.023438 C 346.007812 24.609375 350.886719 20.488281 349.902344 20.25 C 349.894531 20.25 349.886719 20.25 349.878906 20.25 C 347.742188 20.367188 330.871094 32.152344 332.683594 33.910156 " fill-opacity="1" fill-rule="nonzero"/><path fill="#ffffff" d="M 311.792969 29.882812 C 313.59375 29.390625 316.484375 27.890625 322.84375 24.167969 C 333.566406 17.886719 333.691406 17.519531 333.816406 17.179688 L 333.816406 17.171875 C 333.816406 17.171875 333.816406 17.171875 333.8125 17.171875 C 332.234375 16.953125 313.046875 27.390625 311.792969 29.882812 " fill-opacity="1" fill-rule="nonzero"/><path fill="#ffffff" d="M 572.925781 748.796875 C 572.589844 748.871094 572.265625 748.960938 571.9375 749.0625 C 567.652344 750.390625 565.417969 754.765625 570.859375 757.429688 C 575.65625 759.78125 583.753906 756.945312 582.285156 752.363281 C 582.011719 751.515625 580.28125 747.351562 572.925781 748.796875 " fill-opacity="1" fill-rule="nonzero"/><path fill="#ffffff" d="M 387.5625 103.519531 C 389.9375 106.585938 397.0625 105.625 397.890625 95.964844 C 397.894531 95.875 397.847656 87.34375 392.183594 88.144531 C 385.722656 89.527344 384.859375 100.035156 387.5625 103.519531 " fill-opacity="1" fill-rule="nonzero"/><path fill="#ffffff" d="M 412.609375 130.199219 C 412.644531 130.226562 416.277344 133.238281 419.683594 130.835938 C 420.910156 129.976562 424.164062 127.683594 423.808594 122.3125 C 423.78125 121.90625 423.058594 112.355469 415.652344 113.621094 C 408.410156 115.320312 408.234375 126.503906 412.609375 130.199219 " fill-opacity="1" fill-rule="nonzero"/><path fill="#ffffff" d="M 593.191406 723.300781 C 585.984375 725.324219 585.671875 730.972656 589.285156 733.585938 C 593.339844 736.515625 603.308594 733.855469 602.480469 727.5 C 601.972656 723.625 598.414062 722.011719 593.191406 723.300781 " fill-opacity="1" fill-rule="nonzero"/><path fill="#ffffff" d="M 555.632812 287.929688 C 561.179688 291.460938 573.507812 289.109375 571.378906 276.503906 C 571.03125 274.433594 567.117188 264.539062 556.957031 267.472656 C 545.246094 271.492188 550.777344 284.839844 555.632812 287.929688 " fill-opacity="1" fill-rule="nonzero"/><path fill="#ffffff" d="M 640.203125 590.667969 C 628.347656 594.65625 631.375 604.882812 633.253906 607.273438 C 637.664062 612.894531 651.285156 609.441406 651.996094 598.199219 C 652.105469 596.460938 650.398438 587.695312 640.203125 590.667969 " fill-opacity="1" fill-rule="nonzero"/><path fill="#ffffff" d="M 255.171875 50.398438 C 264.589844 43.472656 264.589844 43.472656 265.167969 42.96875 C 265.226562 42.910156 265.300781 42.835938 265.332031 42.765625 C 263.828125 43.40625 250.273438 53.503906 249.21875 54.769531 C 251.324219 53.476562 253.1875 51.859375 255.171875 50.398438 " fill-opacity="1" fill-rule="nonzero"/><path fill="#ffffff" d="M 329.582031 14.765625 C 328.863281 14.371094 311.625 22.792969 309.597656 25.035156 C 310.148438 25.203125 312.789062 23.902344 318.890625 20.726562 C 327.4375 16.28125 329.332031 15.222656 329.582031 14.765625 " fill-opacity="1" fill-rule="nonzero"/><path fill="#ffffff" d="M 558.121094 786.699219 C 560.96875 786.304688 561.535156 785.5625 559.894531 784.375 C 559.863281 784.347656 556.285156 782.125 551.160156 783.03125 C 550.546875 783.152344 549.269531 783.410156 548.867188 783.953125 C 547.894531 785.265625 553.105469 787.40625 558.121094 786.699219 " fill-opacity="1" fill-rule="nonzero"/><path fill="#ffffff" d="M 380.195312 71.046875 C 380.816406 67.613281 380.816406 63.605469 377.296875 64.023438 C 371.945312 65.042969 369.824219 75.246094 371.769531 77.765625 C 373.597656 80.125 378.863281 78.425781 380.195312 71.046875 " fill-opacity="1" fill-rule="nonzero"/><path fill="#ffffff" d="M 627.601562 697.140625 C 627.511719 694.585938 626.277344 690.554688 618.96875 692.324219 C 608.304688 695.601562 612.679688 703.011719 613.652344 703.894531 C 617.207031 707.105469 627.839844 704.144531 627.601562 697.140625 " fill-opacity="1" fill-rule="nonzero"/><path fill="#ffffff" d="M 356.621094 27.078125 C 356.828125 26.867188 357.105469 26.585938 357.3125 26.367188 C 362.222656 21.277344 361.929688 20.707031 361.28125 20.722656 C 358.75 21.117188 348.972656 30.164062 348.824219 32.242188 C 348.761719 33.179688 350.632812 33.183594 356.621094 27.078125 " fill-opacity="1" fill-rule="nonzero"/><path fill="#ffffff" d="M 445.484375 157.0625 C 450.085938 160.109375 458.84375 157.21875 456.941406 148.039062 C 455.953125 143.253906 452.832031 138.644531 447.050781 140.054688 C 438.253906 142.6875 441.292969 154.292969 445.484375 157.0625 " fill-opacity="1" fill-rule="nonzero"/><path fill="#ffffff" d="M 485.003906 183.527344 C 490.515625 186.757812 498.898438 182.757812 496.375 174.277344 C 495.351562 170.839844 492.59375 165.300781 485.640625 166.886719 C 476.652344 169.382812 480.492188 180.878906 485.003906 183.527344 " fill-opacity="1" fill-rule="nonzero"/><path fill="#ffffff" d="M 632.308594 398.296875 C 637.257812 402.828125 649.914062 401.328125 648.816406 387.101562 C 648.511719 383.085938 643.648438 379.816406 643.59375 379.785156 C 640.480469 377.84375 637.535156 378.648438 635.953125 379.082031 C 625.050781 382.667969 628.132812 394.476562 632.308594 398.296875 " fill-opacity="1" fill-rule="nonzero"/><path fill="#ffffff" d="M 551.308594 791.121094 C 550.871094 791.195312 549.96875 791.351562 549.992188 791.578125 C 550.023438 791.90625 552.101562 792.277344 555.398438 792.296875 C 557.023438 792.3125 560.824219 792.085938 561.003906 791.660156 C 560.898438 791.5625 560.71875 791.476562 559.449219 791.269531 C 559.402344 791.261719 554.828125 790.589844 551.308594 791.121094 " fill-opacity="1" fill-rule="nonzero"/><path fill="#ffffff" d="M 364.734375 52.582031 C 364.957031 53.207031 365.6875 54.503906 367.679688 53.027344 C 368.785156 52.214844 370.414062 50.738281 371.769531 47.375 C 372.738281 44.964844 373.992188 40.960938 371.5 41.148438 C 368.167969 41.679688 363.792969 49.917969 364.734375 52.582031 " fill-opacity="1" fill-rule="nonzero"/><path fill="#ffffff" d="M 653.84375 483.339844 C 656.574219 485.246094 661.996094 485.335938 663.902344 484.011719 C 665.679688 482.769531 671.09375 478.996094 669.988281 472.085938 C 669.097656 466.523438 665 461.9375 657.839844 464.226562 C 646.535156 468.386719 649.792969 480.511719 653.84375 483.339844 " fill-opacity="1" fill-rule="nonzero"/><path fill="#ffffff" d="M 284.195312 32.816406 C 284.285156 32.765625 293.199219 27.570312 294.195312 26.625 C 294.191406 26.601562 294.195312 26.566406 294.195312 26.53125 C 292.730469 26.789062 279.25 34.59375 277.464844 36.460938 C 277.46875 36.488281 277.476562 36.523438 277.484375 36.542969 C 278.046875 36.386719 279.675781 35.449219 284.195312 32.816406 " fill-opacity="1" fill-rule="nonzero"/><path fill="#ffffff" d="M 673.097656 544.453125 C 664.683594 547.222656 663.90625 555.90625 667.878906 559.890625 C 672.296875 564.324219 682.816406 559.589844 682.675781 551.4375 C 682.644531 549.824219 682.050781 541.90625 673.097656 544.453125 " fill-opacity="1" fill-rule="nonzero"/><path fill="#ffffff" d="M 656.242188 661.367188 C 656.265625 659.277344 655.550781 654.617188 648.558594 656.453125 C 640.394531 658.917969 640.601562 665.851562 642.878906 668.246094 C 646.347656 671.898438 656.183594 667.898438 656.242188 661.367188 " fill-opacity="1" fill-rule="nonzero"/><path fill="#ffffff" d="M 607.914062 314.699219 C 613.648438 318.34375 623.566406 313.875 621.066406 304.863281 C 620.421875 302.535156 617.660156 295.125 609.171875 297.492188 C 599.601562 300.667969 603.183594 311.699219 607.914062 314.699219 " fill-opacity="1" fill-rule="nonzero"/><path fill="#ffffff" d="M 529.785156 209.28125 C 533.917969 211.902344 542.90625 210.253906 540.730469 201.113281 C 540.710938 201.019531 538.160156 191.917969 530.046875 194.292969 C 521.132812 197.34375 526.597656 207.257812 529.785156 209.28125 " fill-opacity="1" fill-rule="nonzero"/><path fill="#ffffff" d="M 372.667969 25.542969 C 373.050781 25.019531 376.371094 20.441406 374.746094 20.441406 C 372.359375 20.941406 367.332031 27.808594 367.417969 29.328125 C 367.417969 29.355469 368.128906 31.710938 372.667969 25.542969 " fill-opacity="1" fill-rule="nonzero"/><path fill="#ffffff" d="M 588.253906 776.464844 C 587.996094 776.523438 587.746094 776.589844 587.496094 776.675781 C 585.222656 777.445312 585.789062 778.625 586.894531 779.183594 C 588.699219 780.085938 593.148438 779.347656 592.511719 777.410156 C 592.503906 777.398438 591.558594 775.792969 588.253906 776.464844 " fill-opacity="1" fill-rule="nonzero"/><path fill="#ffffff" d="M 680.335938 616.4375 C 675.992188 618.03125 672.933594 623.421875 675.75 626.753906 C 678.621094 630.144531 686.367188 626.984375 686.925781 620.890625 C 687.355469 616.238281 683.925781 615.304688 680.335938 616.4375 " fill-opacity="1" fill-rule="nonzero"/><path fill="#ffffff" d="M 579.574219 234.632812 C 584.820312 237.238281 590.703125 233.109375 588.25 226.738281 C 586.652344 222.59375 582.976562 220.636719 579.105469 221.875 C 572.050781 224.527344 575.757812 232.746094 579.574219 234.632812 " fill-opacity="1" fill-rule="nonzero"/><path fill="#ffffff" d="M 603.25 760.292969 C 599.886719 761.140625 599.351562 763.25 600.457031 764.332031 C 602.386719 766.210938 607.710938 764.550781 607.582031 762.117188 C 607.527344 761.09375 606.554688 759.5625 603.25 760.292969 " fill-opacity="1" fill-rule="nonzero"/><path fill="#ffffff" d="M 685.90625 425.339844 C 689.191406 427.792969 696.941406 424.992188 695.808594 417.882812 C 695.242188 414.332031 693.398438 410.460938 687.847656 412.175781 C 680.621094 414.753906 682.8125 423.027344 685.90625 425.339844 " fill-opacity="1" fill-rule="nonzero"/><path fill="#ffffff" d="M 705.554688 495.613281 C 698.601562 498.085938 700.210938 505.675781 702.570312 507.382812 C 702.597656 507.402344 705.609375 509.425781 709.320312 506.6875 C 710.144531 506.074219 712.675781 504.210938 712.28125 500.207031 C 712.039062 497.777344 710.855469 493.953125 705.554688 495.613281 " fill-opacity="1" fill-rule="nonzero"/><path fill="#ffffff" d="M 624.078125 738.441406 C 618.910156 739.984375 620.925781 743.476562 620.953125 743.507812 C 622.285156 745.175781 627.996094 743.902344 628.308594 740.515625 C 628.398438 739.527344 628.171875 737.347656 624.078125 738.441406 " fill-opacity="1" fill-rule="nonzero"/><path fill="#ffffff" d="M 464.554688 114.6875 C 466.847656 115.992188 471.636719 114.675781 470.035156 109.6875 C 469.527344 108.097656 467.945312 104.496094 464.265625 105.476562 C 459.285156 107.089844 462.351562 113.433594 464.554688 114.6875 " fill-opacity="1" fill-rule="nonzero"/><path fill="#ffffff" d="M 584.113281 786.667969 C 583.679688 786.460938 582.4375 786.027344 580.257812 786.472656 C 579.90625 786.542969 579.179688 786.707031 579.050781 786.949219 C 578.714844 787.574219 582.050781 787.941406 583.9375 787.296875 C 584.527344 787.09375 584.582031 786.890625 584.113281 786.667969 " fill-opacity="1" fill-rule="nonzero"/><path fill="#ffffff" d="M 432.246094 91 C 433.890625 92.390625 438.425781 92.238281 437.78125 86.777344 C 437.773438 86.722656 436.882812 81.378906 432.878906 82.335938 C 428.957031 83.523438 430.355469 89.386719 432.246094 91 " fill-opacity="1" fill-rule="nonzero"/><path fill="#ffffff" d="M 396.902344 42.910156 C 397.105469 41.644531 397.359375 38.738281 395.410156 39.007812 C 392.898438 39.550781 392.308594 44.683594 393.285156 45.824219 C 394.183594 46.882812 396.375 46.214844 396.902344 42.910156 " fill-opacity="1" fill-rule="nonzero"/><path fill="#ffffff" d="M 408.496094 68.105469 C 408.996094 68.53125 410.316406 69.351562 411.859375 67.953125 C 412.511719 67.363281 413.253906 66.1875 413.074219 63.960938 C 412.992188 62.882812 412.503906 59.417969 409.789062 60.007812 C 406.261719 61.007812 406.953125 66.804688 408.496094 68.105469 " fill-opacity="1" fill-rule="nonzero"/><path fill="#ffffff" d="M 661.617188 340.535156 C 664.445312 342.214844 672.074219 340.910156 670.382812 333.09375 C 670.367188 333.027344 668.628906 326.371094 662.417969 328.277344 C 655.355469 330.796875 658.714844 338.808594 661.617188 340.535156 " fill-opacity="1" fill-rule="nonzero"/><path fill="#ffffff" d="M 503.925781 138.046875 C 506.632812 139.066406 507.355469 138.265625 508.269531 137.25 C 508.722656 136.75 509.664062 135.3125 508.628906 132.828125 C 507.492188 130.101562 505.007812 128.679688 502.582031 129.378906 C 502.46875 129.421875 502.3125 129.46875 502.199219 129.515625 C 498.980469 130.882812 500.144531 136.621094 503.925781 138.046875 " fill-opacity="1" fill-rule="nonzero"/><path fill="#ffffff" d="M 650.546875 710.617188 C 646.929688 711.714844 645.8125 714.699219 646.828125 716.175781 C 647.789062 717.582031 650.648438 716.875 650.679688 716.859375 C 650.707031 716.851562 653.71875 715.253906 654.144531 713.207031 C 654.355469 712.238281 654.128906 709.679688 650.546875 710.617188 " fill-opacity="1" fill-rule="nonzero"/><path fill="#ffffff" d="M 680.554688 677.890625 C 676.875 679.191406 677.132812 682.324219 677.621094 682.984375 C 678.648438 684.359375 682.796875 683.078125 683.429688 680.144531 C 683.550781 679.570312 683.988281 676.792969 680.554688 677.890625 " fill-opacity="1" fill-rule="nonzero"/><g clip-path="url(#66b84501c0)"><path fill="#ffffff" d="M 713.859375 572.601562 C 710.125 573.933594 709.351562 578.398438 711.023438 580.238281 C 712.867188 582.277344 718.160156 579.664062 718.324219 575.769531 C 718.398438 574.027344 717.914062 571.289062 713.859375 572.601562 " fill-opacity="1" fill-rule="nonzero"/></g><path fill="#ffffff" d="M 631.832031 258.894531 C 634.507812 260.230469 639.355469 258.109375 637.59375 253.589844 C 636.914062 251.839844 635.246094 249.058594 631.695312 250.152344 C 626.488281 252.019531 629.539062 257.742188 631.832031 258.894531 " fill-opacity="1" fill-rule="nonzero"/><path fill="#ffffff" d="M 548.464844 160.667969 C 548.65625 160.738281 550.363281 161.371094 551.515625 160.265625 C 552.453125 159.367188 552.675781 158.300781 552.179688 157.097656 C 552.167969 157.058594 550.648438 153.453125 547.542969 154.289062 C 547.390625 154.339844 547.238281 154.398438 547.09375 154.464844 C 544.183594 155.828125 546.285156 159.804688 548.464844 160.667969 " fill-opacity="1" fill-rule="nonzero"/></svg>