<?xml version="1.0" standalone="no"?>
<!DOCTYPE svg PUBLIC "-//W3C//DTD SVG 20010904//EN"
 "http://www.w3.org/TR/2001/REC-SVG-20010904/DTD/svg10.dtd">
<svg version="1.0" xmlns="http://www.w3.org/2000/svg"
 width="700.000000pt" height="700.000000pt" viewBox="0 0 700.000000 700.000000"
 preserveAspectRatio="xMidYMid meet">
<metadata>
Created by potrace 1.14, written by Peter Selinger 2001-2017
</metadata>
<g transform="translate(0.000000,700.000000) scale(0.100000,-0.100000)"
fill="#000000" stroke="none">
<path d="M2820 6860 c-9 -6 -10 -10 -3 -10 6 0 15 5 18 10 8 12 4 12 -15 0z"/>
<path d="M2738 6823 c-26 -15 -46 -28 -45 -30 4 -4 107 47 107 53 0 8 -16 2
-62 -23z"/>
<path d="M2798 6812 c-26 -15 -59 -37 -75 -49 -26 -21 -25 -20 17 2 104 56
120 66 120 70 0 9 -15 4 -62 -23z"/>
<path d="M2864 6794 c-63 -38 -97 -65 -90 -71 2 -3 42 21 88 51 92 62 94 76 2
20z"/>
<path d="M2960 6787 c-59 -41 -98 -77 -83 -77 12 0 129 85 138 101 11 17 -10
8 -55 -24z"/>
<path d="M3064 6776 c-27 -24 -45 -48 -41 -52 4 -4 29 13 54 39 61 60 50 71
-13 13z"/>
<path d="M3203 6793 c-13 -14 -23 -33 -23 -42 1 -11 11 -4 30 19 17 19 30 38
30 42 0 15 -15 7 -37 -19z"/>
<path d="M2465 6730 c-3 -6 1 -7 9 -4 18 7 21 14 7 14 -6 0 -13 -4 -16 -10z"/>
<path d="M2424 6704 c-18 -14 -18 -15 4 -4 12 6 22 13 22 15 0 8 -5 6 -26 -11z"/>
<path d="M2465 6693 c-22 -15 -57 -38 -78 -51 -20 -14 -35 -27 -32 -30 3 -3
13 2 22 10 10 8 46 32 81 52 34 21 62 39 62 42 0 9 -16 2 -55 -23z"/>
<path d="M2510 6667 c-59 -35 -164 -117 -151 -117 16 0 191 121 191 132 0 10
2 11 -40 -15z"/>
<path d="M2554 6622 c-69 -46 -141 -108 -133 -116 3 -3 26 7 50 23 46 31 158
130 148 131 -3 0 -32 -17 -65 -38z"/>
<path d="M3401 6642 c-11 -21 2 -48 18 -38 14 9 15 56 1 56 -5 0 -14 -8 -19
-18z"/>
<path d="M3187 6625 c-43 -47 -50 -104 -9 -79 23 15 44 60 40 87 -3 21 -4 21
-31 -8z"/>
<path d="M2670 6608 c-81 -54 -149 -128 -117 -128 30 0 180 140 165 155 -2 2
-23 -10 -48 -27z"/>
<path d="M2819 6605 c-61 -46 -118 -118 -100 -129 12 -8 118 89 137 125 18 36
8 37 -37 4z"/>
<path d="M2994 6613 c-29 -26 -74 -88 -74 -101 0 -34 67 14 94 66 27 52 17 68
-20 35z"/>
<path d="M2196 6535 c-16 -14 -32 -25 -35 -25 -3 0 -26 -19 -51 -41 -39 -35
-40 -38 -10 -18 50 33 143 109 133 109 -4 0 -21 -11 -37 -25z"/>
<path d="M2201 6482 c-56 -38 -163 -133 -157 -139 6 -6 100 65 166 125 53 48
50 53 -9 14z"/>
<path d="M3524 6466 c-10 -26 0 -51 21 -51 16 0 20 7 20 30 0 33 -30 49 -41
21z"/>
<path d="M2230 6419 c-113 -84 -190 -178 -107 -129 40 24 177 149 177 161 0
16 -14 9 -70 -32z"/>
<path d="M3231 6424 c-28 -35 -29 -104 -3 -104 40 0 77 85 52 115 -17 21 -26
19 -49 -11z"/>
<path d="M2350 6396 c-79 -58 -169 -166 -139 -166 36 0 199 153 199 186 0 21
-10 17 -60 -20z"/>
<path d="M2978 6409 c-25 -14 -68 -91 -68 -121 0 -39 24 -40 58 -5 34 35 52
75 52 113 0 25 -14 30 -42 13z"/>
<path d="M2513 6378 c-83 -69 -144 -168 -103 -168 34 0 170 155 170 195 0 14
-32 2 -67 -27z"/>
<path d="M2715 6369 c-67 -62 -103 -149 -61 -149 34 0 126 123 126 170 0 30
-15 25 -65 -21z"/>
<path d="M1899 6303 l-34 -38 38 34 c20 19 37 36 37 38 0 8 -8 0 -41 -34z"/>
<path d="M1923 6288 c-73 -64 -161 -158 -147 -158 9 0 127 111 173 163 33 37
20 34 -26 -5z"/>
<path d="M3733 6283 c-26 -10 -11 -73 17 -73 29 0 41 22 27 50 -13 25 -25 31
-44 23z"/>
<path d="M1938 6213 c-100 -89 -165 -167 -148 -178 12 -7 179 155 199 193 18
34 -3 27 -51 -15z"/>
<path d="M3361 6221 c-26 -26 -29 -102 -5 -122 13 -11 20 -11 42 2 35 19 49
67 31 105 -18 36 -42 41 -68 15z"/>
<path d="M2065 6192 c-68 -42 -194 -200 -179 -224 19 -30 221 186 212 227 -3
13 -7 13 -33 -3z"/>
<path d="M3039 6187 c-28 -14 -69 -90 -69 -128 0 -62 67 -62 104 0 19 32 29
93 19 118 -7 18 -28 22 -54 10z"/>
<path d="M2209 6143 c-107 -89 -176 -213 -118 -213 39 0 161 144 183 218 10
32 -24 29 -65 -5z"/>
<path d="M2710 6144 c-62 -53 -103 -176 -63 -191 55 -21 156 129 132 195 -11
29 -31 28 -69 -4z"/>
<path d="M2448 6142 c-61 -41 -132 -158 -121 -200 7 -26 20 -28 53 -5 60 42
115 127 122 188 4 36 -16 43 -54 17z"/>
<path d="M1710 6103 c0 -5 -19 -29 -43 -54 -39 -42 -59 -66 -96 -112 -7 -9
-11 -17 -8 -17 3 0 42 43 86 95 45 52 77 95 71 95 -5 0 -10 -3 -10 -7z"/>
<path d="M4003 6083 c-18 -7 -16 -43 3 -64 22 -25 54 -13 54 20 0 41 -23 58
-57 44z"/>
<path d="M1675 5993 c-74 -77 -166 -203 -148 -203 23 0 180 187 196 233 9 26
3 22 -48 -30z"/>
<path d="M3561 5994 c-55 -70 13 -171 76 -112 21 20 24 30 20 67 -8 71 -58 94
-96 45z"/>
<path d="M1770 5953 c-61 -43 -180 -202 -180 -241 0 -56 138 87 199 205 30 60
26 67 -19 36z"/>
<path d="M3170 5947 c-54 -27 -78 -134 -40 -175 25 -26 42 -28 75 -6 49 32 65
134 28 177 -19 20 -30 21 -63 4z"/>
<path d="M1880 5871 c-85 -85 -148 -207 -121 -234 17 -17 61 16 122 93 49 62
77 113 85 155 6 31 4 35 -15 35 -13 0 -43 -21 -71 -49z"/>
<path d="M2794 5904 c-66 -32 -114 -157 -80 -209 40 -61 135 15 152 120 12 78
-18 115 -72 89z"/>
<path d="M2164 5886 c-78 -34 -183 -216 -150 -261 19 -26 61 -9 106 42 68 78
112 196 83 224 -4 4 -22 2 -39 -5z"/>
<path d="M2414 5853 c-71 -73 -109 -199 -66 -222 66 -35 190 139 166 235 -10
38 -55 32 -100 -13z"/>
<path d="M4327 5868 c-14 -39 34 -81 62 -54 21 22 0 66 -33 66 -13 0 -26 -6
-29 -12z"/>
<path d="M1473 5788 c-26 -29 -138 -197 -146 -220 -14 -40 12 -12 73 80 63 93
104 162 97 162 -2 0 -13 -10 -24 -22z"/>
<path d="M3835 5770 c-40 -44 -6 -141 48 -135 34 4 35 4 51 21 39 38 0 134
-53 134 -15 0 -36 -9 -46 -20z"/>
<path d="M1507 5704 c-103 -109 -200 -284 -158 -284 12 0 79 83 118 145 71
115 95 198 40 139z"/>
<path d="M3360 5690 c-50 -50 -54 -127 -10 -171 23 -24 34 -28 57 -23 38 9 60
30 74 71 14 42 4 98 -22 124 -25 25 -74 24 -99 -1z"/>
<path d="M4723 5664 c-23 -10 6 -53 35 -54 15 0 16 32 0 48 -13 13 -16 13 -35
6z"/>
<path d="M1627 5641 c-90 -59 -200 -301 -138 -301 55 0 205 251 184 306 -7 18
-12 18 -46 -5z"/>
<path d="M2899 5610 c-79 -83 -65 -219 22 -220 91 -1 153 169 87 239 -30 33
-66 27 -109 -19z"/>
<path d="M1865 5610 c-46 -17 -130 -128 -155 -205 -38 -114 14 -152 94 -69 73
75 118 186 107 263 -2 14 -24 19 -46 11z"/>
<path d="M2497 5589 c-73 -55 -114 -202 -70 -251 36 -40 114 -6 153 67 31 56
39 158 15 185 -23 26 -62 25 -98 -1z"/>
<path d="M2117 5558 c-53 -53 -89 -127 -95 -195 -4 -46 -2 -53 21 -68 24 -15
28 -15 61 0 46 22 109 115 122 181 25 124 -28 163 -109 82z"/>
<path d="M4169 5539 c-38 -38 -8 -123 46 -130 55 -8 88 32 73 88 -16 59 -79
82 -119 42z"/>
<path d="M1266 5425 c-42 -62 -112 -206 -122 -250 -6 -27 -5 -28 8 -17 48 39
184 322 155 322 -3 0 -21 -25 -41 -55z"/>
<path d="M3635 5437 c-33 -28 -47 -93 -30 -134 30 -70 97 -86 146 -36 90 92
-20 253 -116 170z"/>
<path d="M1360 5368 c-57 -61 -127 -208 -137 -285 -4 -36 -2 -43 13 -43 25 0
65 49 107 132 45 88 67 151 67 189 0 35 -21 38 -50 7z"/>
<path d="M3115 5347 c-60 -60 -70 -157 -22 -212 20 -24 43 -30 89 -26 44 3
103 100 94 152 -3 13 -5 32 -5 42 -1 10 -14 32 -30 48 -41 41 -83 39 -126 -4z"/>
<path d="M1559 5315 c-44 -24 -115 -145 -137 -235 -14 -57 -9 -91 15 -107 20
-13 24 -12 61 21 80 73 152 261 121 318 -12 21 -25 22 -60 3z"/>
<path d="M2658 5311 c-36 -20 -95 -107 -100 -150 -5 -42 11 -104 34 -128 89
-95 248 110 184 236 -29 56 -66 69 -118 42z"/>
<path d="M4586 5319 c-34 -10 -46 -24 -46 -60 0 -29 41 -79 64 -79 55 0 83 38
64 90 -13 40 -46 59 -82 49z"/>
<path d="M1855 5284 c-108 -54 -183 -302 -104 -344 23 -13 75 7 105 41 76 85
113 250 67 301 -19 22 -29 22 -68 2z"/>
<path d="M2228 5281 c-69 -34 -120 -133 -121 -234 0 -39 5 -53 25 -74 75 -74
198 53 202 208 1 52 -3 71 -17 87 -26 28 -51 32 -89 13z"/>
<path d="M1100 5148 c-37 -83 -100 -243 -100 -255 1 -16 40 68 90 192 28 70
49 129 47 131 -2 2 -19 -28 -37 -68z"/>
<path d="M3977 5189 c-36 -28 -54 -88 -38 -127 45 -108 175 -98 195 13 7 40
-18 92 -56 115 -42 25 -69 25 -101 -1z"/>
<path d="M1154 5098 c-42 -48 -124 -258 -124 -318 0 -75 43 -27 100 114 63
154 76 263 24 204z"/>
<path d="M3424 5093 c-46 -23 -61 -41 -73 -87 -24 -97 22 -175 106 -176 77 0
133 75 119 162 -14 89 -86 136 -152 101z"/>
<path d="M5000 5077 c-53 -26 -26 -107 36 -107 55 0 72 53 29 95 -28 29 -31
29 -65 12z"/>
<path d="M1297 5027 c-80 -67 -157 -294 -127 -373 14 -36 53 -32 83 9 90 120
142 357 84 380 -8 3 -26 -5 -40 -16z"/>
<path d="M2875 5018 c-139 -77 -119 -324 26 -314 66 5 126 75 134 156 8 89
-43 170 -107 170 -18 0 -42 -6 -53 -12z"/>
<path d="M1565 4981 c-42 -26 -63 -55 -97 -129 -51 -111 -49 -245 3 -273 25
-13 76 9 108 46 82 97 117 299 60 356 -24 24 -36 24 -74 0z"/>
<path d="M2380 4972 c-124 -62 -162 -278 -60 -341 57 -34 133 7 176 96 48 98
28 220 -42 249 -40 17 -32 17 -74 -4z"/>
<path d="M1953 4963 c-32 -6 -87 -64 -113 -119 -15 -33 -25 -74 -28 -124 -4
-72 -3 -78 24 -109 25 -30 32 -33 67 -28 88 12 159 139 152 270 -2 50 -27 107
-45 107 -5 0 -14 2 -22 4 -7 2 -23 1 -35 -1z"/>
<path d="M4369 4935 c-46 -25 -57 -98 -23 -150 46 -71 163 -48 175 35 6 33
-14 81 -43 105 -33 28 -70 31 -109 10z"/>
<path d="M985 4808 c-35 -87 -73 -230 -80 -305 l-6 -58 20 37 c20 35 78 231
87 293 3 17 7 35 9 41 2 6 0 16 -5 23 -5 8 -13 -2 -25 -31z"/>
<path d="M5441 4822 c-7 -14 -6 -25 5 -41 21 -29 58 -25 62 7 7 46 -47 72 -67
34z"/>
<path d="M3747 4812 c-37 -23 -67 -87 -63 -133 5 -46 18 -71 58 -104 83 -70
214 25 189 138 -23 99 -109 146 -184 99z"/>
<path d="M1077 4720 c-51 -60 -102 -243 -94 -338 6 -84 38 -89 77 -13 55 108
88 290 66 359 -10 29 -19 28 -49 -8z"/>
<path d="M3176 4725 c-46 -16 -70 -37 -90 -79 -67 -143 40 -288 168 -227 73
36 106 123 80 211 -24 81 -88 119 -158 95z"/>
<path d="M4783 4670 c-30 -27 -36 -55 -23 -95 31 -94 159 -101 176 -10 7 42 0
66 -31 99 -30 33 -91 36 -122 6z"/>
<path d="M1313 4665 c-52 -22 -102 -127 -118 -249 -17 -137 42 -218 110 -150
57 57 95 176 92 290 -2 64 -6 77 -27 98 -23 23 -27 24 -57 11z"/>
<path d="M2592 4654 c-89 -46 -132 -189 -85 -285 24 -48 68 -79 111 -79 89 0
169 116 157 230 -12 112 -99 176 -183 134z"/>
<path d="M1643 4620 c-109 -66 -153 -329 -68 -400 40 -33 108 -11 149 48 40
59 58 120 59 202 1 86 -19 141 -59 159 -34 15 -44 14 -81 -9z"/>
<path d="M2088 4619 c-132 -68 -162 -327 -44 -383 30 -14 43 -15 71 -6 69 23
124 106 132 202 13 142 -66 235 -159 187z"/>
<path d="M4151 4543 c-115 -59 -93 -226 33 -257 98 -24 177 94 128 191 -36 69
-102 96 -161 66z"/>
<path d="M921 4432 c-30 -57 -55 -200 -56 -321 0 -107 14 -127 39 -59 39 104
68 334 50 383 -8 20 -21 19 -33 -3z"/>
<path d="M3510 4428 c-29 -11 -67 -44 -82 -71 -22 -41 -21 -114 2 -161 71
-147 273 -92 272 73 -1 47 -20 101 -46 126 -35 35 -102 50 -146 33z"/>
<path d="M5264 4425 c-43 -18 -58 -40 -50 -77 15 -73 84 -101 131 -53 30 29
32 59 6 101 -23 37 -48 46 -87 29z"/>
<path d="M1086 4339 c-45 -35 -80 -159 -78 -278 2 -144 58 -195 110 -102 49
87 69 285 35 355 -21 44 -35 50 -67 25z"/>
<path d="M2867 4328 c-68 -41 -110 -170 -79 -249 40 -102 147 -136 230 -72 94
71 94 248 1 316 -41 30 -107 32 -152 5z"/>
<path d="M2324 4289 c-42 -12 -100 -78 -115 -131 -28 -100 -5 -196 63 -253 27
-23 39 -27 79 -23 63 6 106 39 136 105 33 72 33 155 0 220 -37 75 -92 103
-163 82z"/>
<path d="M1366 4259 c-54 -42 -86 -139 -82 -248 4 -116 49 -186 111 -173 62
13 117 122 118 237 2 162 -66 248 -147 184z"/>
<path d="M1815 4271 c-99 -44 -152 -238 -96 -354 29 -59 61 -82 114 -80 135 6
203 278 100 401 -30 35 -81 49 -118 33z"/>
<path d="M4545 4245 c-31 -32 -37 -48 -37 -100 0 -37 4 -46 36 -78 41 -41 85
-52 131 -33 94 40 97 178 4 228 -54 29 -93 24 -134 -17z"/>
<path d="M5706 4151 c-20 -22 -20 -50 0 -79 19 -28 48 -28 75 -1 14 14 18 27
13 42 -14 48 -61 68 -88 38z"/>
<path d="M829 4133 c0 -10 -2 -27 -4 -38 -18 -91 -28 -362 -14 -371 5 -3 9 3
10 13 0 10 2 27 4 38 18 93 28 375 14 375 -5 0 -9 -8 -10 -17z"/>
<path d="M3893 4130 c-111 -49 -118 -214 -13 -283 113 -73 257 50 215 183 -28
90 -122 136 -202 100z"/>
<path d="M920 4028 c-10 -17 -22 -50 -26 -72 -3 -23 -8 -50 -10 -61 -2 -11 -4
-63 -5 -115 -1 -92 -1 -94 -15 -61 -11 27 -17 32 -27 22 -14 -14 -17 -269 -4
-366 11 -81 33 -133 50 -116 14 14 17 247 5 341 l-7 55 18 -41 c23 -51 35 -59
55 -39 52 53 69 342 25 447 -16 40 -37 42 -59 6z m-30 -358 c0 -5 -2 -10 -4
-10 -3 0 -8 5 -11 10 -3 6 -1 10 4 10 6 0 11 -4 11 -10z"/>
<path d="M3245 4029 c-67 -19 -118 -94 -118 -175 -2 -150 137 -237 254 -160
48 33 73 87 72 158 -2 123 -100 207 -208 177z"/>
<path d="M5045 4000 c-78 -21 -106 -111 -56 -180 34 -48 120 -52 161 -8 29 31
35 63 21 109 -19 63 -69 95 -126 79z"/>
<path d="M2588 3940 c-142 -76 -116 -347 38 -389 111 -31 206 61 205 200 0
157 -123 252 -243 189z"/>
<path d="M1167 3939 c-74 -43 -96 -282 -34 -391 34 -61 87 -64 121 -6 60 101
52 307 -14 378 -30 32 -44 36 -73 19z"/>
<path d="M2058 3917 c-47 -11 -103 -72 -118 -128 -44 -164 46 -332 167 -313
71 11 114 57 137 146 42 162 -61 326 -186 295z"/>
<path d="M1522 3875 c-43 -36 -65 -90 -70 -171 -9 -144 53 -254 144 -254 40 0
99 66 113 127 39 163 -26 323 -133 323 -13 0 -38 -11 -54 -25z"/>
<path d="M4303 3830 c-89 -54 -86 -195 7 -257 89 -61 213 10 213 121 0 50 -22
95 -63 130 -40 33 -109 36 -157 6z"/>
<path d="M3625 3713 c-89 -45 -127 -142 -90 -229 67 -161 272 -156 316 8 14
52 4 107 -28 156 -43 65 -137 96 -198 65z"/>
<path d="M5480 3717 c-27 -14 -50 -51 -50 -83 0 -12 10 -36 23 -55 30 -45 81
-52 122 -16 23 19 28 32 29 70 1 40 -3 51 -28 72 -32 28 -59 31 -96 12z"/>
<path d="M2960 3623 c-124 -51 -154 -234 -56 -341 36 -41 94 -65 143 -59 128
14 196 164 132 293 -35 69 -86 107 -151 110 -29 2 -60 1 -68 -3z"/>
<path d="M995 3597 c-60 -92 -22 -386 56 -427 97 -52 100 337 4 434 -23 22
-42 20 -60 -7z"/>
<path d="M2334 3561 c-56 -25 -90 -71 -104 -136 -43 -208 154 -387 288 -262
58 54 81 148 57 236 -36 136 -141 207 -241 162z"/>
<path d="M4759 3545 c-79 -43 -85 -175 -11 -230 41 -30 122 -28 157 5 57 52
65 123 22 187 -12 18 -32 37 -45 42 -32 15 -92 13 -123 -4z"/>
<path d="M1308 3523 c-82 -87 -54 -329 46 -403 44 -32 67 -31 101 3 54 54 70
156 41 262 -38 144 -123 206 -188 138z"/>
<path d="M1792 3522 c-37 -12 -81 -61 -93 -105 -53 -197 93 -411 222 -324 53
35 74 88 74 182 0 68 -4 89 -28 138 -42 86 -111 128 -175 109z"/>
<path d="M5919 3419 c-25 -25 -19 -64 12 -91 49 -42 109 47 67 100 -16 19 -56
14 -79 -9z"/>
<path d="M4038 3399 c-66 -34 -98 -135 -69 -212 25 -66 109 -114 181 -104 157
21 177 259 27 322 -49 20 -94 18 -139 -6z"/>
<path d="M3345 3289 c-126 -62 -131 -257 -8 -338 26 -17 51 -32 57 -32 86 -11
143 12 182 71 103 156 -68 378 -231 299z"/>
<path d="M909 3278 c-11 -21 -8 -157 6 -223 30 -148 80 -244 107 -203 29 47
-2 285 -52 392 -25 52 -45 64 -61 34z"/>
<path d="M5238 3266 c-70 -25 -91 -74 -67 -156 21 -69 110 -93 167 -45 41 34
52 69 38 124 -17 69 -73 100 -138 77z"/>
<path d="M2690 3224 c-74 -31 -111 -94 -113 -189 -2 -143 119 -270 240 -250
86 13 142 83 148 184 10 166 -144 309 -275 255z"/>
<path d="M1172 3203 c-63 -22 -56 -252 12 -368 52 -88 100 -106 139 -52 46 60
15 271 -52 364 -28 39 -73 64 -99 56z"/>
<path d="M1572 3157 c-34 -15 -63 -70 -69 -131 -13 -126 57 -272 149 -311 31
-12 38 -12 69 3 18 9 42 31 52 49 55 95 2 304 -94 371 -31 21 -81 30 -107 19z"/>
<path d="M2088 3156 c-67 -28 -101 -92 -99 -185 1 -58 17 -106 54 -162 94
-142 251 -129 287 23 28 113 -34 265 -125 311 -42 21 -85 26 -117 13z"/>
<path d="M4505 3106 c-111 -51 -120 -203 -15 -273 63 -43 165 -19 205 49 36
62 13 167 -45 208 -37 26 -107 34 -145 16z"/>
<path d="M3785 2976 c-134 -60 -132 -261 4 -333 178 -93 328 127 193 283 -27
31 -96 64 -134 64 -18 -1 -46 -7 -63 -14z"/>
<path d="M5664 2978 c-48 -23 -59 -104 -19 -143 76 -77 192 43 124 129 -22 28
-65 34 -105 14z"/>
<path d="M895 2963 c12 -128 101 -423 127 -423 22 0 -43 282 -91 393 -20 47
-39 63 -36 30z"/>
<path d="M3084 2876 c-17 -8 -44 -31 -60 -52 -26 -34 -29 -45 -29 -113 1 -86
15 -122 71 -176 43 -42 92 -59 154 -53 87 9 141 68 146 161 8 159 -150 290
-282 233z"/>
<path d="M1063 2854 c-35 -91 53 -368 133 -421 23 -15 26 -15 42 1 47 47 -22
323 -103 409 -29 30 -62 35 -72 11z"/>
<path d="M2444 2816 c-86 -38 -116 -165 -66 -278 96 -217 356 -205 355 16 0
82 -32 153 -93 210 -65 61 -133 79 -196 52z"/>
<path d="M4985 2821 c-67 -16 -105 -63 -105 -128 0 -135 169 -177 240 -60 58
94 -28 213 -135 188z"/>
<path d="M1426 2802 c-99 -22 -71 -270 43 -389 59 -62 106 -73 145 -33 30 30
29 162 -2 242 -42 106 -131 192 -186 180z"/>
<path d="M1881 2777 c-50 -25 -66 -62 -66 -150 0 -91 21 -149 78 -214 58 -65
146 -92 195 -57 96 67 56 295 -70 393 -42 33 -103 46 -137 28z"/>
<path d="M6084 2712 c-41 -27 -35 -102 8 -102 13 0 31 7 41 14 18 14 26 63 13
85 -8 12 -45 15 -62 3z"/>
<path d="M4213 2654 c-70 -46 -91 -129 -53 -204 44 -86 145 -117 229 -69 49
27 74 71 75 130 1 92 -62 159 -157 166 -44 4 -59 0 -94 -23z"/>
<path d="M3554 2560 c-18 -4 -46 -17 -63 -29 -90 -64 -83 -209 15 -289 140
-115 328 -1 278 169 -31 104 -132 169 -230 149z"/>
<path d="M5426 2550 c-90 -16 -128 -120 -67 -181 79 -78 215 25 171 130 -16
40 -56 59 -104 51z"/>
<path d="M1054 2535 c-13 -33 90 -304 141 -371 31 -41 55 -44 55 -8 0 63 -91
288 -147 362 -26 35 -41 40 -49 17z"/>
<path d="M2865 2482 c-34 -7 -86 -53 -101 -88 -35 -84 -11 -178 66 -254 93
-94 201 -108 275 -35 34 35 47 69 46 125 0 122 -113 246 -230 254 -20 1 -45 0
-56 -2z"/>
<path d="M1300 2441 c-41 -78 56 -317 158 -386 84 -57 117 29 66 172 -57 159
-187 283 -224 214z"/>
<path d="M2240 2419 c-29 -13 -45 -28 -56 -54 -60 -144 95 -369 243 -352 135
15 150 201 27 336 -67 75 -146 100 -214 70z"/>
<path d="M1723 2410 c-74 -31 -60 -192 27 -307 143 -190 301 -108 219 113 -49
129 -171 226 -246 194z"/>
<path d="M4666 2374 c-109 -75 -75 -230 55 -251 79 -12 164 59 162 136 -2 80
-51 130 -133 136 -38 2 -56 -2 -84 -21z"/>
<path d="M5805 2290 c-46 -18 -66 -76 -40 -116 26 -40 102 -26 124 23 31 69
-16 121 -84 93z"/>
<path d="M3974 2251 c-132 -60 -121 -228 20 -292 113 -51 230 20 228 138 -2
75 -56 139 -138 162 -52 14 -62 14 -110 -8z"/>
<path d="M1120 2248 c0 -29 189 -388 205 -388 7 0 -23 69 -75 170 -68 135
-130 238 -130 218z"/>
<path d="M3305 2162 c-87 -19 -130 -123 -91 -217 62 -147 268 -188 339 -67 77
132 -87 320 -248 284z"/>
<path d="M1287 2136 c-10 -26 3 -70 48 -163 89 -182 217 -292 198 -170 -13 81
-90 223 -162 298 -48 50 -74 61 -84 35z"/>
<path d="M5111 2123 c-19 -11 -43 -35 -54 -55 -54 -91 48 -190 148 -143 42 20
75 71 75 114 0 75 -97 123 -169 84z"/>
<path d="M2650 2092 c-58 -27 -82 -65 -82 -127 0 -157 189 -302 318 -246 121
54 79 259 -71 347 -45 26 -136 41 -165 26z"/>
<path d="M2068 2075 c-17 -10 -32 -30 -39 -55 -42 -139 135 -364 279 -355 50
3 78 25 91 72 13 47 6 89 -28 158 -69 139 -218 227 -303 180z"/>
<path d="M1606 2059 c-22 -31 -12 -94 28 -174 71 -142 197 -232 250 -179 46
45 0 185 -94 288 -76 82 -152 109 -184 65z"/>
<path d="M6152 2038 c-17 -17 -15 -48 4 -55 21 -8 59 30 51 51 -7 19 -38 21
-55 4z"/>
<path d="M4421 1983 c-38 -19 -81 -67 -82 -94 -1 -10 -2 -25 -3 -31 -4 -27 17
-69 49 -97 92 -80 237 -29 251 87 11 96 -122 180 -215 135z"/>
<path d="M5508 1884 c-51 -27 -65 -97 -28 -134 53 -53 158 9 152 88 -4 54 -67
78 -124 46z"/>
<path d="M3719 1860 c-39 -20 -69 -71 -69 -114 0 -67 69 -147 143 -167 101
-27 193 23 203 112 5 38 -24 106 -57 136 -56 51 -158 67 -220 33z"/>
<path d="M1355 1833 c22 -53 156 -250 202 -297 83 -87 36 31 -75 190 -91 129
-160 187 -127 107z"/>
<path d="M3074 1784 c-62 -30 -81 -111 -44 -183 54 -108 188 -167 283 -127 94
39 87 169 -12 259 -23 21 -54 43 -69 49 -42 17 -125 18 -158 2z"/>
<path d="M1592 1778 c-20 -20 -14 -52 25 -129 62 -124 207 -253 253 -224 31
19 -16 140 -87 225 -79 95 -166 153 -191 128z"/>
<path d="M1960 1740 c-66 -66 48 -268 192 -339 88 -44 131 -41 153 12 17 40 4
95 -39 161 -93 145 -245 227 -306 166z"/>
<path d="M2479 1735 c-40 -22 -55 -67 -40 -124 40 -151 249 -273 338 -197 24
21 28 31 27 78 -1 67 -22 109 -90 174 -77 75 -173 103 -235 69z"/>
<path d="M4829 1727 c-19 -13 -40 -39 -48 -60 -13 -34 -12 -42 2 -72 27 -57
97 -83 157 -58 48 19 68 40 80 81 27 100 -98 172 -191 109z"/>
<path d="M5856 1655 c-28 -26 -33 -54 -14 -73 26 -26 80 -1 92 43 13 47 -38
67 -78 30z"/>
<path d="M4200 1616 c-73 -23 -107 -70 -94 -130 16 -73 76 -118 158 -119 62
-1 107 23 128 67 50 104 -73 220 -192 182z"/>
<path d="M3516 1506 c-63 -35 -72 -96 -27 -168 41 -65 119 -102 198 -96 48 4
61 10 85 37 29 33 36 78 19 123 -15 40 -79 96 -130 113 -59 19 -101 17 -145
-9z"/>
<path d="M5242 1519 c-57 -22 -76 -96 -36 -140 32 -35 129 -16 154 30 16 31
12 75 -10 99 -22 23 -67 28 -108 11z"/>
<path d="M1634 1508 c15 -88 274 -361 301 -318 14 23 -66 139 -166 239 -75 75
-141 114 -135 79z"/>
<path d="M2923 1456 c-114 -51 -32 -229 130 -285 107 -37 178 -6 179 78 2 125
-195 256 -309 207z"/>
<path d="M1941 1441 c-42 -77 193 -321 297 -309 91 10 -48 232 -190 302 -62
31 -94 33 -107 7z"/>
<path d="M2372 1419 c-27 -28 -28 -61 -2 -114 43 -88 168 -182 258 -192 55 -6
93 26 87 74 -14 107 -155 236 -274 250 -41 5 -51 2 -69 -18z"/>
<path d="M4593 1383 c-74 -37 -77 -140 -5 -177 30 -15 58 -20 106 -18 34 2 96
63 96 94 0 31 -27 82 -52 97 -32 20 -107 21 -145 4z"/>
<path d="M5584 1319 c-35 -17 -48 -57 -29 -85 18 -28 24 -29 70 -10 57 24 60
98 4 103 -13 1 -34 -3 -45 -8z"/>
<path d="M1760 1283 c0 -17 253 -262 293 -284 36 -21 -6 30 -118 139 -110 107
-175 161 -175 145z"/>
<path d="M3970 1280 c-64 -27 -80 -105 -33 -161 57 -67 161 -89 224 -46 97 65
26 201 -112 213 -30 2 -65 -1 -79 -6z"/>
<path d="M3384 1209 c-62 -17 -84 -70 -54 -129 25 -49 56 -75 125 -105 158
-70 263 46 146 162 -56 56 -154 89 -217 72z"/>
<path d="M1980 1193 c0 -69 268 -298 323 -277 61 23 -185 269 -290 290 -28 6
-33 4 -33 -13z"/>
<path d="M4979 1177 c-45 -30 -58 -67 -35 -102 50 -77 186 -39 186 52 0 27 -6
37 -32 53 -43 26 -77 25 -119 -3z"/>
<path d="M2348 1159 c-84 -48 160 -286 288 -281 48 2 57 10 50 44 -14 72 -115
171 -227 223 -58 27 -84 30 -111 14z"/>
<path d="M2801 1149 c-48 -52 24 -164 144 -223 81 -39 155 -40 181 -1 15 24
15 28 0 69 -46 121 -261 223 -325 155z"/>
<path d="M5862 1127 c-6 -7 -7 -18 -3 -26 7 -11 12 -11 27 0 11 8 20 20 22 27
3 16 -33 16 -46 -1z"/>
<path d="M4413 1078 c-142 -29 -72 -201 76 -185 87 10 123 88 67 146 -34 36
-87 50 -143 39z"/>
<path d="M5316 999 c-42 -33 -31 -84 19 -89 35 -4 45 0 70 24 22 22 23 28 14
55 -9 26 -16 31 -44 31 -18 0 -44 -9 -59 -21z"/>
<path d="M2099 983 c22 -43 185 -171 295 -233 27 -14 36 -16 36 -6 0 22 -162
155 -265 219 -67 41 -80 45 -66 20z"/>
<path d="M3825 992 c-32 -6 -65 -43 -65 -71 0 -103 192 -181 268 -110 78 72
-74 208 -203 181z"/>
<path d="M2376 932 c-15 -15 -2 -43 40 -85 50 -51 161 -129 219 -153 42 -17
86 -15 93 4 7 22 -138 154 -213 194 -67 35 -127 52 -139 40z"/>
<path d="M3260 928 c-92 -49 44 -200 195 -215 44 -5 56 -2 74 16 48 48 8 119
-100 176 -58 30 -135 41 -169 23z"/>
<path d="M2782 909 c-93 -35 129 -229 261 -229 73 1 74 42 1 120 -71 76 -203
131 -262 109z"/>
<path d="M4767 886 c-25 -17 -32 -29 -32 -55 0 -94 174 -98 183 -5 6 64 -88
102 -151 60z"/>
<path d="M5602 848 c-27 -27 -4 -54 31 -36 23 12 23 48 -1 48 -10 0 -23 -5
-30 -12z"/>
<path d="M4221 797 c-35 -17 -47 -59 -26 -91 36 -55 161 -80 205 -41 76 69
-79 183 -179 132z"/>
<path d="M5140 751 c-62 -14 -86 -58 -47 -86 26 -18 47 -19 81 -4 31 14 38 32
26 63 -10 27 -26 34 -60 27z"/>
<path d="M2492 722 c6 -32 225 -168 301 -187 72 -18 -46 79 -185 153 -91 48
-120 57 -116 34z"/>
<path d="M3694 733 c-6 -4 -16 -17 -22 -29 -26 -49 76 -129 179 -140 122 -13
126 86 6 148 -43 21 -144 35 -163 21z"/>
<path d="M2803 685 c-16 -43 187 -173 278 -178 26 -1 44 3 46 10 8 22 -87 102
-164 139 -92 44 -150 55 -160 29z"/>
<path d="M3210 691 c-24 -16 0 -61 54 -102 77 -58 195 -89 238 -63 31 19 -28
92 -112 138 -55 30 -153 45 -180 27z"/>
<path d="M4621 649 c-54 -12 -67 -50 -28 -86 51 -48 157 -33 157 22 0 24 -33
64 -54 66 -6 0 -18 2 -26 3 -8 2 -30 -1 -49 -5z"/>
<path d="M5370 605 c-14 -17 -5 -35 19 -35 20 0 41 19 41 37 0 18 -45 17 -60
-2z"/>
<path d="M4102 563 c-29 -24 -21 -52 24 -82 71 -49 175 -46 182 6 9 61 -152
121 -206 76z"/>
<path d="M2706 546 c66 -38 256 -128 260 -123 4 4 -278 147 -292 147 -5 0 10
-11 32 -24z"/>
<path d="M2910 520 c-22 -13 150 -113 235 -136 80 -21 96 -13 42 23 -95 63
-253 128 -277 113z"/>
<path d="M3646 517 c-19 -14 -19 -16 -3 -40 39 -61 236 -117 253 -72 24 61
-190 157 -250 112z"/>
<path d="M4920 510 c-21 -21 -21 -22 -4 -41 23 -25 91 -23 108 4 29 46 -62 79
-104 37z"/>
<path d="M3236 501 c-20 -31 144 -123 242 -136 58 -7 68 5 32 42 -51 55 -255
125 -274 94z"/>
<path d="M4478 440 c-23 -14 -11 -48 23 -65 40 -21 116 -20 127 3 5 9 7 23 5
30 -12 34 -115 55 -155 32z"/>
<path d="M5190 415 c-10 -12 -9 -16 3 -21 25 -9 51 0 55 19 4 22 -40 24 -58 2z"/>
<path d="M4067 392 c-12 -2 -17 -11 -15 -25 4 -30 83 -68 147 -70 56 -2 70 6
55 31 -25 40 -131 76 -187 64z"/>
<path d="M3093 375 c18 -13 198 -79 247 -89 56 -13 -116 57 -220 89 -38 12
-42 12 -27 0z"/>
<path d="M3669 353 c-7 -7 -10 -15 -8 -16 56 -40 143 -72 205 -76 56 -3 63 13
17 42 -77 48 -194 75 -214 50z"/>
<path d="M3334 351 c18 -28 165 -86 245 -97 42 -5 45 -4 31 10 -39 40 -297
122 -276 87z"/>
<path d="M4813 350 c-29 -12 -21 -35 15 -48 30 -9 74 -2 79 13 9 31 -50 53
-94 35z"/>
<path d="M4430 289 c-13 -8 -11 -12 9 -29 13 -11 35 -21 50 -22 14 -1 35 -2
46 -3 26 -2 45 5 45 16 0 29 -118 59 -150 38z"/>
<path d="M5065 281 c-7 -12 31 -25 45 -16 6 4 8 11 5 16 -8 12 -42 12 -50 0z"/>
<path d="M4076 252 c-13 -21 56 -49 142 -59 65 -7 70 10 10 37 -51 22 -144 35
-152 22z"/>
<path d="M3555 230 c33 -11 71 -22 85 -25 42 -8 64 -13 95 -20 67 -17 14 5
-72 29 -117 33 -196 44 -108 16z"/>
<path d="M3765 230 c14 -23 235 -73 235 -53 0 10 -53 29 -135 48 -71 17 -109
19 -100 5z"/>
<path d="M4755 230 c-19 -7 -19 -7 2 -18 29 -16 86 -16 81 0 -6 16 -58 27 -83
18z"/>
<path d="M5015 200 c-3 -5 1 -10 10 -10 9 0 13 5 10 10 -3 6 -8 10 -10 10 -2
0 -7 -4 -10 -10z"/>
<path d="M4440 182 c0 -12 49 -22 109 -22 38 1 43 2 27 12 -25 14 -136 23
-136 10z"/>
<path d="M4165 160 c3 -4 29 -11 58 -15 28 -4 64 -9 80 -11 15 -2 27 0 27 5 0
5 -26 12 -57 16 -92 13 -113 14 -108 5z"/>
<path d="M4769 159 c-6 -3 4 -6 20 -7 17 0 31 3 31 7 0 8 -37 9 -51 0z"/>
<path d="M3948 153 c7 -3 16 -2 19 1 4 3 -2 6 -13 5 -11 0 -14 -3 -6 -6z"/>
<path d="M3982 156 c10 -12 78 -25 78 -15 0 5 -11 9 -24 9 -13 0 -33 3 -43 7
-10 3 -15 3 -11 -1z"/>
<path d="M4078 138 c5 -5 16 -8 23 -6 8 3 3 7 -10 11 -17 4 -21 3 -13 -5z"/>
<path d="M4563 133 c9 -2 25 -2 35 0 9 3 1 5 -18 5 -19 0 -27 -2 -17 -5z"/>
</g>
</svg>
